<svg xmlns="http://www.w3.org/2000/svg" xmlns:svg="http://www.w3.org/2000/svg" id="svg5" width="1896.999" height="1008.234" version="1.1" viewBox="0 0 501.914 266.762"><defs id="defs2"><clipPath id="clip0"><rect id="rect9" width="1897" height="1024" x="15" y="15"/></clipPath></defs><g id="layer1" transform="translate(421.06024,168.76245)"><g id="g386" clip-path="url(#clip0)" transform="matrix(0.26458333,0,0,0.26458333,-425.02928,-176.63794)"><rect id="rect14" width="25" height="22" x="1031" y="447"/><rect id="rect16" width="25" height="22" x="447" y="194"/><rect id="rect18" width="25" height="22" x="447" y="162"/><rect id="rect20" width="25" height="22" x="447" y="228"/><rect id="rect22" width="25" height="22" x="293" y="162"/><rect id="rect24" width="99" height="53" x="1388" y="57" stroke="#000" stroke-miterlimit="8" stroke-width="2"/><text id="text26" fill="#fff" font-family="Calibri, Calibri_MSFontService, sans-serif" font-size="20" font-weight="400" transform="translate(1419.7,91)">Pass</text><rect id="rect28" width="99" height="53" x="1500" y="57" fill="#fff" stroke="#000" stroke-miterlimit="8" stroke-width="2"/><text id="text30" font-family="Calibri, Calibri_MSFontService, sans-serif" font-size="16" font-weight="400" transform="translate(1528.79,89)">Buffer</text><rect id="rect32" width="25" height="22" x="795" y="195"/><rect id="rect34" width="25" height="22" x="795" y="163"/><rect id="rect36" width="25" height="22" x="795" y="229"/><rect id="rect38" width="179" height="90" x="795" y="161" stroke="#000" stroke-miterlimit="8" stroke-width="2"/><text id="text42" fill="#fff" font-family="Calibri, Calibri_MSFontService, sans-serif" font-size="18" font-weight="400" transform="translate(847.157,191)">Depth clip<tspan id="tspan40" x="-14" y="44" font-size="14">Render resolution</tspan></text><rect id="rect44" width="20" height="29" x="302" y="163"/><rect id="rect46" width="178" height="88" x="294" y="162" stroke="#000" stroke-miterlimit="8" stroke-width="2"/><text id="text50" fill="#fff" font-family="Calibri, Calibri_MSFontService, sans-serif" font-size="18" font-weight="400" transform="translate(308.539,191)">Reconstruct &amp; dilate<tspan id="tspan48" x="23.37" y="44" font-size="14">Render resolution</tspan></text><rect id="rect52" width="178" height="89" x="1514" y="380" fill="#404040" stroke="#000" stroke-miterlimit="8" stroke-width="2"/><text id="text58" fill="#fff" font-family="Calibri, Calibri_MSFontService, sans-serif" font-size="18" font-weight="400" transform="translate(1583.92,405)">RCAS<tspan id="tspan54" x="-48.37" y="51" font-size="14">Presentation</tspan><tspan id="tspan56" x="28.13" y="51" font-size="14">resolution</tspan></text><rect id="rect60" width="178" height="90" x="534" y="938" stroke="#000" stroke-miterlimit="8" stroke-width="2"/><text id="text64" fill="#fff" font-family="Calibri, Calibri_MSFontService, sans-serif" font-size="18" font-weight="400" transform="translate(575.853,964)">Update locks<tspan id="tspan62" x="-4" y="51" font-size="14">Render resolution</tspan></text><rect id="rect66" width="179" height="90" x="293" y="938" stroke="#000" stroke-miterlimit="8" stroke-width="2"/><text id="text70" fill="#fff" font-family="Calibri, Calibri_MSFontService, sans-serif" font-size="18" font-weight="400" transform="translate(316.134,964)">Adjust Input Color<tspan id="tspan68" x="15.12" y="51" font-size="14">Render resolution</tspan></text><rect id="rect72" width="179" height="90" x="293" y="707" stroke="#000" stroke-miterlimit="8" stroke-width="2"/><text id="text78" fill="#fff" font-family="Calibri, Calibri_MSFontService, sans-serif" font-size="18" font-weight="400" transform="translate(328.241,722)">Auto-exposure <tspan id="tspan74" x="34.5" y="21" font-size="18">(SPD)</tspan><tspan id="tspan76" x="3" y="73" font-size="14">Render resolution</tspan></text><rect id="rect80" width="179" height="90" x="64" y="485" fill="#fff" stroke="#000" stroke-miterlimit="8" stroke-width="2"/><rect id="rect82" width="179" height="90" x="54" y="161" fill="#fff" stroke="#000" stroke-dasharray="16 6" stroke-miterlimit="8" stroke-width="2"/><text id="text94" font-family="Calibri, Calibri_MSFontService, sans-serif" font-size="18" font-weight="400" transform="translate(87.1588,184)">Motion<tspan id="tspan84" x="58.25" y="0" font-size="18">vectors</tspan><tspan id="tspan86" x="-2.62" y="16" font-size="12">APPLICATION SPECIFIED</tspan><tspan id="tspan88" x="29.5" y="30" font-size="12">(2x FLOAT)</tspan><tspan id="tspan90" x="21.13" y="45" font-size="12">Current frame</tspan><tspan id="tspan92" x="12.13" y="59" font-size="12">Render resolution</tspan></text><rect id="rect96" width="179" height="89" x="54" y="59" fill="#fff" stroke="#000" stroke-dasharray="16 6" stroke-miterlimit="8" stroke-width="2"/><text id="text108" font-family="Calibri, Calibri_MSFontService, sans-serif" font-size="18" font-weight="400" transform="translate(95.9088,83)">Depth buffer<tspan id="tspan98" x="-11.37" y="16" font-size="12">APPLICATION SPECIFIED</tspan><tspan id="tspan100" x="20.75" y="30" font-size="12">(1x FLOAT)</tspan><tspan id="tspan102" x="12.38" y="45" font-size="12">Current frame</tspan><tspan id="tspan104" x="3.38" y="59" font-size="12">Render</tspan><tspan id="tspan106" x="41.38" y="59" font-size="12">resolution</tspan></text><rect id="rect110" width="179" height="89" x="54" y="477" fill="#fff" stroke="#000" stroke-miterlimit="8" stroke-width="2"/><text id="text120" font-family="Calibri, Calibri_MSFontService, sans-serif" font-size="18" font-weight="400" transform="translate(87.6638,499)">Output<tspan id="tspan112" x="56.5" y="0" font-size="18">buffer</tspan>*<tspan id="tspan114" x="-1" y="16" font-size="12">R16G16B16A16_FLOAT</tspan><tspan id="tspan116" x="18.38" y="45" font-size="12">Previous frame</tspan><tspan id="tspan118" x="-2" y="59" font-size="12">Presentation resolution</tspan></text><rect id="rect122" width="179" height="90" x="63" y="823" fill="#fff" stroke="#000" stroke-dasharray="16 6" stroke-miterlimit="8" stroke-width="2"/><text id="text130" font-family="Calibri, Calibri_MSFontService, sans-serif" font-size="18" font-weight="400" transform="translate(108.676,845)">Color buffer<tspan id="tspan124" x="-14.37" y="16" font-size="12">APPLICATION SPECIFIED</tspan><tspan id="tspan126" x="9.38" y="45" font-size="12">Current frame</tspan><tspan id="tspan128" x=".38" y="59" font-size="12">Render resolution</tspan></text><rect id="rect132" width="179" height="90" x="54" y="592" fill="#fff" stroke="#000" stroke-dasharray="16 6" stroke-miterlimit="8" stroke-width="2"/><text id="text140" font-family="Calibri, Calibri_MSFontService, sans-serif" font-size="18" font-weight="400" transform="translate(109.409,614)">Exposure<tspan id="tspan134" x="5.75" y="16" font-size="12">R32_FLOAT</tspan><tspan id="tspan136" x="-1.12" y="45" font-size="12">Current frame</tspan><tspan id="tspan138" x="25" y="59" font-size="12">1x1</tspan></text><rect id="rect142" width="179" height="89" x="54" y="265" fill="#fff" stroke="#000" stroke-dasharray="16 6" stroke-miterlimit="8" stroke-width="2"/><text id="text152" font-family="Calibri, Calibri_MSFontService, sans-serif" font-size="18" font-weight="400" transform="translate(90.7887,289)">Reactive mask<tspan id="tspan144" x="22.87" y="16" font-size="12">R8_UNORM</tspan><tspan id="tspan146" x="17.5" y="45" font-size="12">Current frame</tspan><tspan id="tspan148" x="8.5" y="59" font-size="12">Render</tspan><tspan id="tspan150" x="46.5" y="59" font-size="12">resolution</tspan></text><rect id="rect154" width="178" height="90" x="534" y="592" fill="#fff" stroke="#000" stroke-miterlimit="8" stroke-width="2"/><text id="text162" font-family="Calibri, Calibri_MSFontService, sans-serif" font-size="18" font-weight="400" transform="translate(553.228,614)">Current Luminance<tspan id="tspan156" x="42" y="16" font-size="12">R16_FLOAT</tspan><tspan id="tspan158" x="35.12" y="45" font-size="12">Current frame</tspan><tspan id="tspan160" x="18" y="59" font-size="12">Render resolution / 2</tspan></text><rect id="rect164" width="178" height="90" x="534" y="823" fill="#fff" stroke="#000" stroke-miterlimit="8" stroke-width="2"/><text id="text172" font-family="Calibri, Calibri_MSFontService, sans-serif" font-size="18" font-weight="400" transform="translate(578.978,845)">Color buffer<tspan id="tspan166" x="-12.25" y="16" font-size="12">R16G16B16A16_FLOAT</tspan><tspan id="tspan168" x="9.37" y="45" font-size="12">Current frame</tspan><tspan id="tspan170" x=".37" y="59" font-size="12">Render resolution</tspan></text><rect id="rect174" width="178" height="89" x="534" y="708" fill="#fff" stroke="#000" stroke-miterlimit="8" stroke-width="2"/><text id="text182" font-family="Calibri, Calibri_MSFontService, sans-serif" font-size="18" font-weight="400" transform="translate(574.848,730)">Luma History<tspan id="tspan176" x="-.62" y="16" font-size="12">R8G8B8A8_UNORM</tspan><tspan id="tspan178" x="13.5" y="45" font-size="12">Current frame</tspan><tspan id="tspan180" x="4.5" y="59" font-size="12">Render resolution</tspan></text><path id="path184" d="m 0,-3 h 33.9624 v 233.632 l -3,-3 h 15.9623 v 6 H 27.9624 V 0 l 3,3 H 0 Z m 43.9247,224.632 18,9 -18,9 z" transform="matrix(1,0,0,-1,472,983.632)"/><path id="path186" d="m 0,-3 h 33.9624 v 118.366 l -3,-3 h 15.9623 v 6 H 27.9624 V 0 l 3,3 H 0 Z m 43.9247,109.366 18,9 -18,9 z" transform="matrix(1,0,0,-1,472,983.366)"/><path id="path188" d="m 626,913 v 10.884 h -6 V 913 Z m 6,7.884 -9,18 -9,-18 z"/><rect id="rect190" width="179" height="90" x="802" y="947" fill="#fff" stroke="#000" stroke-miterlimit="8" stroke-width="2"/><text id="text198" font-family="Calibri, Calibri_MSFontService, sans-serif" font-size="18" font-weight="400" transform="translate(846.722,969)">Lock status†<tspan id="tspan192" x="4.5" y="16" font-size="12">R16G16_SFLOAT</tspan><tspan id="tspan194" x="7.87" y="45" font-size="12">Previous frame</tspan><tspan id="tspan196" x="-12.5" y="59" font-size="12">Presentation resolution</tspan></text><path id="path200" d="m 15,-2.99997 52.5274,10e-5 v 6 L 15,3.00003 Z m 3,12 L 0,0 18,-8.99997 Z m 46.5274,-17.99991 18,9.00003748 -18,8.99996252 z" transform="matrix(-1,0,0,1,794.527,983)"/><rect id="rect202" width="179" height="90" x="795" y="938" fill="#fff" stroke="#000" stroke-miterlimit="8" stroke-width="2"/><text id="text210" font-family="Calibri, Calibri_MSFontService, sans-serif" font-size="18" font-weight="400" transform="translate(839.424,961)">Lock status†<tspan id="tspan204" x="7.25" y="16" font-size="12">R16G16_FLOAT</tspan><tspan id="tspan206" x="7.87" y="45" font-size="12">Previous frame</tspan><tspan id="tspan208" x="-12.5" y="59" font-size="12">Presentation resolution</tspan></text><path id="path212" d="m 0,-3 h 386.634 v 271.41 h -6 V 0 l 3,3 H 0 Z m 392.634,268.41 -9,18 -9,-18 z" transform="matrix(1,0,0,-1,712,752.41)"/><path id="path214" d="m 0,-3 h 62.7439 v 876.299 h -6 V 0 l 3,3 H 0 Z m 68.7439,873.299 -9,18 -9,-18 z" transform="matrix(0,1,1,0,143,354)"/><rect id="rect216" width="179" height="90" x="540" y="58" fill="#fff" stroke="#000" stroke-miterlimit="8" stroke-width="2"/><text id="text224" font-family="Calibri, Calibri_MSFontService, sans-serif" font-size="18" font-weight="400" transform="translate(574.163,81)">Previous depth<tspan id="tspan218" x="22.87" y="16" font-size="12">R32_UNORM</tspan><tspan id="tspan220" x="20.5" y="45" font-size="12">Current frame</tspan><tspan id="tspan222" x="11.5" y="59" font-size="12">Render resolution</tspan></text><rect id="rect226" width="179" height="89" x="540" y="264" fill="#fff" stroke="#000" stroke-miterlimit="8" stroke-width="2"/><text id="text234" font-family="Calibri, Calibri_MSFontService, sans-serif" font-size="16" font-weight="400" transform="translate(554.993,285)">Dilated motion vectors<tspan id="tspan228" x="40.13" y="15" font-size="12">R16G16_UINT</tspan><tspan id="tspan230" x="39.5" y="44" font-size="12">Current frame</tspan><tspan id="tspan232" x="30.5" y="59" font-size="12">Render resolution</tspan></text><rect id="rect236" width="179" height="91" x="540" y="160" fill="#fff" stroke="#000" stroke-miterlimit="8" stroke-width="2"/><text id="text244" font-family="Calibri, Calibri_MSFontService, sans-serif" font-size="18" font-weight="400" transform="translate(579.584,183)">Dilated depth<tspan id="tspan238" x="25.63" y="16" font-size="12">R16_UINT</tspan><tspan id="tspan240" x="15.25" y="45" font-size="12">Current frame</tspan><tspan id="tspan242" x="6.25" y="59" font-size="12">Render resolution</tspan></text><path id="path246" d="m 233,101 h 33.386 v 72.577 l -3,-3 h 15.386 v 6 H 260.386 V 104 l 3,3 H 233 Z m 42.772,63.577 18,9 -18,9 z"/><path id="path248" d="m 0,-3 h 37.0324 v 72.9002 l -3,-3 h 19.0323 v 6 H 31.0324 V 0 l 3,3 H 0 Z m 50.0647,63.9002 18,9 -18,9 z" transform="matrix(1,0,0,-1,472,172.9)"/><path id="path250" d="m 472,236 h 37.032 v 72.398 l -3,-3 h 19.033 v 6 H 503.032 V 239 l 3,3 H 472 Z m 50.065,63.398 18,9 -18,9 z"/><path id="path252" d="m 719,100 h 41.023 v 73.888 l -3,-3 h 23.023 v 6 H 754.023 V 103 l 3,3 H 719 Z m 58.046,64.888 18,9 -18,9 z"/><path id="path254" d="m 0,-3 h 41.1936 v 71.4109 l -3,-3 h 23.1936 v 6 H 35.1936 V 0 l 3,3 H 0 Z m 58.3872,62.4109 18,9 -18,9 z" transform="matrix(1,0,0,-1,719,308.411)"/><path id="path256" d="m 0,-3 h 41.585 v 390.095 h -6 V 0 l 3,3 H 0 Z m 47.585,387.096 -9,18 -9,-18 z" transform="matrix(0,1,1,0,629,353)"/><rect id="rect258" width="178" height="90" x="1032" y="161" fill="#fff" stroke="#000" stroke-miterlimit="8" stroke-width="2"/><text id="text268" font-family="Calibri, Calibri_MSFontService, sans-serif" font-size="18" font-weight="400" transform="translate(1054.61,184)">Disocclusion mask<tspan id="tspan260" x="37.13" y="16" font-size="12">R8_</tspan><tspan id="tspan262" x="55.63" y="16" font-size="12">UNORM</tspan><tspan id="tspan264" x="31.75" y="45" font-size="12">Current frame</tspan><tspan id="tspan266" x="22.75" y="59" font-size="12">Render resolution</tspan></text><path id="path270" d="m 0,-3 h 67.3707 v 3.106299 l -3,-2.999999 h 49.3703 v 6 H 61.3707 V 0 l 3,3 H 0 Z m 110.741,-5.8937 18,8.999999 -18,9.000001 z" transform="matrix(0,1,1,0,1121,251)"/><rect id="rect272" width="178" height="90" x="1283" y="484" fill="#fff" stroke="#000" stroke-miterlimit="8" stroke-width="2"/><text id="text280" font-family="Calibri, Calibri_MSFontService, sans-serif" font-size="18" font-weight="400" transform="translate(1302.46,505)">Reprojected locks†<tspan id="tspan274" x="29" y="16" font-size="12">R16G16_SFLOAT</tspan><tspan id="tspan276" x="34.62" y="47" font-size="12">Current frame</tspan><tspan id="tspan278" x="12" y="61" font-size="12">Presentation resolution</tspan></text><rect id="rect282" width="178" height="89" x="1283" y="275" fill="#fff" stroke="#000" stroke-miterlimit="8" stroke-width="2"/><text id="text290" font-family="Calibri, Calibri_MSFontService, sans-serif" font-size="18" font-weight="400" transform="translate(1316.7,297)">Output buffer*<tspan id="tspan284" x="-3.75" y="16" font-size="12">R16G16B16A16_SFLOAT</tspan><tspan id="tspan286" x="20.62" y="45" font-size="12">Current frame</tspan><tspan id="tspan288" x="-2" y="59" font-size="12">Presentation resolution</tspan></text><rect id="rect292" width="178" height="89" x="1275" y="266" fill="#fff" stroke="#000" stroke-miterlimit="8" stroke-width="2"/><text id="text300" font-family="Calibri, Calibri_MSFontService, sans-serif" font-size="18" font-weight="400" transform="translate(1308.82,288)">Output buffer*<tspan id="tspan294" x="-1" y="16" font-size="12">R16G16B16A16_FLOAT</tspan><tspan id="tspan296" x="20.62" y="45" font-size="12">Current frame</tspan><tspan id="tspan298" x="-2" y="59" font-size="12">Presentation resolution</tspan></text><rect id="rect302" width="179" height="90" x="1275" y="477" fill="#fff" stroke="#000" stroke-miterlimit="8" stroke-width="2"/><text id="text310" font-family="Calibri, Calibri_MSFontService, sans-serif" font-size="18" font-weight="400" transform="translate(1295.42,498)">Reprojected locks†<tspan id="tspan304" x="31.75" y="16" font-size="12">R16G16_FLOAT</tspan><tspan id="tspan306" x="34.62" y="47" font-size="12">Current frame</tspan><tspan id="tspan308" x="12" y="61" font-size="12">Presentation resolution</tspan></text><path id="path312" d="m 0,-3 h 227.477 v 502.042 h -6 V 0 l 3,3 H 0 Z m 233.477,499.042 -9,18 -9,-18 z" transform="matrix(1,0,0,-1,974,983.042)"/><path id="path314" d="m 0,-3 h 334.232 v 155.639 h -6 V 0 l 3,3 H 0 Z m 340.232,152.639 -9,18 -9,-18 z" transform="matrix(1,0,0,-1,712,636.639)"/><path id="path316" d="m 0,-3 h 437.653 v 386.676 h -6 V 0 l 3,3 H 0 Z m 443.653,383.676 -9,18 -9,-18 z" transform="matrix(1,0,0,-1,712,867.676)"/><path id="path318" d="m 1211,421 h 35.46 v 100.748 l -3,-3 h 17.45 v 6 h -20.45 V 424 l 3,3 H 1211 Z m 46.91,91.748 18,9 -18,9 z"/><path id="path320" d="m 0,-3 h 35.288 v 116.523 l -3,-3 h 17.2879 v 6 H 29.288 V 0 l 3,3 H 0 Z m 46.5759,107.523 18,9 -18,9 z" transform="matrix(1,0,0,-1,1211,424.523)"/><path id="path322" d="m 1453,308 h 33.16 v 116.523 l -3,-3 h 15.17 v 6 h -18.17 V 311 l 3,3 H 1453 Z m 42.33,107.523 18,9 -18,9 z"/><path id="path324" d="M 140,476.66 V 433 h 876.3 v 6 H 143 l 3,-3 v 40.66 z m 873.3,-49.66 18,9 -18,9 z"/><rect id="rect326" width="24" height="22" x="1084" y="447"/><rect id="rect328" width="24" height="22" x="1135" y="447"/><rect id="rect330" width="24" height="22" x="1186" y="447"/><rect id="rect332" width="179" height="89" x="1032" y="380" stroke="#000" stroke-miterlimit="8" stroke-width="2"/><text id="text338" fill="#fff" font-family="Calibri, Calibri_MSFontService, sans-serif" font-size="18" font-weight="400" transform="translate(1085.84,398)">Reproject <tspan id="tspan334" x="-16.13" y="21" font-size="18">&amp; Accumulate</tspan><tspan id="tspan336" x="-32" y="66" font-size="14">Presentation resolution</tspan></text><rect id="rect340" width="25" height="22" x="1031" y="403"/><rect id="rect342" width="25" height="22" x="1031" y="381"/><path id="path344" d="m 974,203 h 43.03 v 6 H 974 Z m 40.03,-6 18,9 -18,9 z"/><path id="path346" d="m 719.02,203 61.046,0.404 -0.039,6 L 718.98,209 Z m 58.086,-5.616 17.94,9.119 -18.059,8.881 z"/><path id="path348" d="m 472.021,202 53.406,0.378 -0.042,6 L 471.979,208 Z m 50.449,-5.643 17.936,9.127 -18.063,8.872 z"/><path id="path350" d="M 0.0117017,-2.99998 46.2984,-2.81943 46.275,3.18052 -0.0117017,2.99998 Z M 43.3219,-8.83109 61.2866,0.239055 43.2516,9.16878 Z" transform="matrix(1,0,0,-1,233,206.239)"/><rect id="rect352" width="178" height="89" x="1733" y="381" fill="#fff" stroke="#000" stroke-dasharray="8 6" stroke-miterlimit="8" stroke-width="2"/><text id="text360" font-family="Calibri, Calibri_MSFontService, sans-serif" font-size="18" font-weight="400" transform="translate(1750.65,403)">Presentation buffer<tspan id="tspan354" x="13" y="16" font-size="12">APPLICATION SPECIFIED</tspan><tspan id="tspan356" x="36.75" y="45" font-size="12">Current frame</tspan><tspan id="tspan358" x="14.13" y="59" font-size="12">Presentation resolution</tspan></text><path id="path362" d="m 1692.09,421.001 25.56,0.764 -0.18,5.997 -25.56,-0.763 z m 22.74,-5.323 17.73,9.533 -18.27,8.459 z"/><text id="text364" font-family="Calibri, Calibri_MSFontService, sans-serif" font-size="24" font-weight="400" transform="translate(1387.64,45)">Key</text><rect id="rect366" width="99" height="53" x="1612" y="58" fill="#fff" stroke="#000" stroke-dasharray="8 6" stroke-miterlimit="8" stroke-width="2"/><text id="text370" font-family="Calibri, Calibri_MSFontService, sans-serif" font-size="12" font-weight="400" transform="translate(1628.78,81)">Input/Output <tspan id="tspan368" x="17.37" y="15" font-size="12">Buffer</tspan></text><path id="path372" d="m 242,865 h 143.199 v 58.608 h -6 V 868 l 3,3 H 242 Z m 149.199,55.608 -9,18 -9,-18 z"/><path id="path374" d="m 0,-3 h 143.181 v 58.9805 h -6 V 0 l 3,3 H 0 Z m 149.181,55.9805 -9,18 -9,-18 z" transform="matrix(1,0,0,-1,242,867.98)"/><path id="path376" d="M 379,707.542 V 634 h 139.277 v 6 H 382 l 3,-3 v 70.542 z M 515.277,628 l 18,9 -18,9 z"/><path id="path378" d="M 54,640 H 18.0011 l 3,-3 v 346.436 l -3,-3 H 278.641 v 6 H 15.0011 V 634 H 54 Z m 221.641,334.436 18,9 -18,9 z"/><path id="path380" d="m 0,-3 h 47.996 v 181.712 l -3,-3 h 738.798 v 6 H 41.996 V 0 l 3,3 H 0 Z m 780.795,172.712 18,9 -18,9 z" transform="matrix(1,0,0,-1,233,636.712)"/><rect id="rect382" width="25" height="22" x="1031" y="425"/><path id="path384" d="M 293.118,755.608 H 140 V 697 h 6 v 55.608 l -3,-3 H 293.118 Z M 134,700 l 9,-18 9,18 z"/></g></g></svg>