<svg xmlns="http://www.w3.org/2000/svg" xmlns:svg="http://www.w3.org/2000/svg" id="svg157" width="804" height="425" version="1.1" viewBox="0 0 212.725 112.448"><defs id="defs154"><clipPath id="clip0"><rect id="rect161" width="804" height="425" x="291" y="116"/></clipPath></defs><g id="layer1" transform="translate(94.795491,-94.827588)"><g id="g208" clip-path="url(#clip0)" transform="matrix(0.26458333,0,0,0.26458333,-171.78924,64.135922)"><rect id="rect166" width="221" height="103" x="584" y="117" fill="#fff" stroke="#000" stroke-miterlimit="8" stroke-width="2"/><text id="text168" font-family="Calibri, Calibri_MSFontService, sans-serif" font-size="20" font-weight="400" transform="translate(648.646,175)">Application</text><rect id="rect170" width="221" height="103" x="584" y="271" stroke="#000" stroke-miterlimit="8" stroke-width="2"/><text id="text176" fill="#fff" font-family="Calibri, Calibri_MSFontService, sans-serif" font-size="20" font-weight="400" transform="translate(655.141,305)">FidelityFX <tspan id="tspan172" x="-44.62" y="24" font-size="20">Super Resolution 2.0</tspan><tspan id="tspan174" x="26" y="48" font-size="20">API</tspan></text><path id="path178" d="m 698,220 v 36.266 h -6 V 220 Z m 6,33.266 -9,18 -9,-18 z"/><rect id="rect180" width="223" height="103" x="292" y="437" stroke="#000" stroke-miterlimit="8" stroke-width="2"/><text id="text186" fill="#fff" font-family="Calibri, Calibri_MSFontService, sans-serif" font-size="20" font-weight="400" transform="translate(364.453,471)">FidelityFX <tspan id="tspan182" x="-29.63" y="24" font-size="20">Super Resolution</tspan><tspan id="tspan184" x="-42.5" y="48" font-size="20">DirectX®12 Backend</tspan></text><rect id="rect188" width="223" height="103" x="582" y="437" stroke="#000" stroke-miterlimit="8" stroke-width="2"/><text id="text194" fill="#fff" font-family="Calibri, Calibri_MSFontService, sans-serif" font-size="20" font-weight="400" transform="translate(653.951,471)">FidelityFX <tspan id="tspan190" x="-29.63" y="24" font-size="20">Super Resolution</tspan><tspan id="tspan192" x="-30.13" y="48" font-size="20">Vulkan® Backend</tspan></text><rect id="rect196" width="223" height="103" x="871" y="437" fill="#fff" stroke="#000" stroke-miterlimit="8" stroke-width="2"/><text id="text200" font-family="Calibri, Calibri_MSFontService, sans-serif" font-size="20" font-weight="400" transform="translate(910.689,483)">Application’s own <tspan id="tspan198" x="37.87" y="24" font-size="20">backend</tspan></text><path id="path202" d="m 697.693,374 v 34.293 H 404 l 3,-3 v 16.293 h -6 v -19.293 h 293.693 l -3,3 V 374 Z M 413,418.586 l -9,18 -9,-18 z"/><path id="path204" d="m 0,-3 h 34.2932 v 291.293 l -3,-3 h 16.2929 v 6 H 28.2932 V 0 l 3,3 H 0 Z m 44.5861,282.293 18,9 -18,9 z" transform="matrix(0,1,1,0,695,374)"/><path id="path206" d="M 2.99945,-0.0575102 3.9119,47.5314 -2.087,47.6464 -2.99945,0.0575102 Z M 9.85328,44.4169 1.2,62.5861 -8.14341,44.762 Z" transform="matrix(-1,0,0,1,694.2,374)"/></g></g></svg>