<svg xmlns="http://www.w3.org/2000/svg" xmlns:svg="http://www.w3.org/2000/svg" id="svg5" width="1496.342" height="346" version="1.1" viewBox="0 0 395.907 91.546"><defs id="defs2"><clipPath id="clip0"><rect id="rect9" width="1513" height="358" x="270" y="119"/></clipPath></defs><g id="layer1" transform="translate(336.07723,-19.886877)"><g id="g76" clip-path="url(#clip0)" transform="matrix(0.26458333,0,0,0.26458333,-407.51473,-11.598539)"><rect id="rect14" width="409" height="248" x="271" y="120" fill="#595959" stroke="#000" stroke-miterlimit="8" stroke-width="2"/><text id="text22" fill="#fff" font-family="Calibri, Calibri_MSFontService, sans-serif" font-size="48" font-weight="400" transform="translate(358.816,222)">Color buffer<tspan id="tspan16" x="39.41" y="28" font-size="16">APPLICATION SPECIFIED</tspan><tspan id="tspan18" x="70.66" y="66" font-size="16">Current frame</tspan><tspan id="tspan20" x="58.16" y="85" font-size="16">Render resolution</tspan></text><rect id="rect24" width="408" height="248" x="1023" y="120" fill="#d9d9d9" stroke="#000" stroke-miterlimit="8" stroke-width="2"/><rect id="rect26" width="213" height="128" x="1279" y="278" fill="#595959" stroke="#000" stroke-miterlimit="8" stroke-width="2"/><text id="text34" fill="#fff" font-family="Calibri, Calibri_MSFontService, sans-serif" font-size="20" font-weight="400" transform="translate(1307.65,313)">Current Luminance<tspan id="tspan28" x="49.87" y="16" font-size="12">R16_FLOAT</tspan><tspan id="tspan30" x="43" y="45" font-size="12">Current frame</tspan><tspan id="tspan32" x="25.87" y="59" font-size="12">Render resolution / 2</tspan></text><rect id="rect36" width="115" height="64" x="1421" y="374" fill="#d9d9d9" stroke="#000" stroke-miterlimit="8" stroke-width="2"/><rect id="rect38" width="59" height="31" x="1507" y="422" fill="#d9d9d9" stroke="#000" stroke-miterlimit="8" stroke-width="2"/><rect id="rect40" width="29" height="15" x="1551" y="446" fill="#d9d9d9" stroke="#000" stroke-miterlimit="8" stroke-width="2"/><rect id="rect42" width="15" height="7" x="1573" y="457" fill="#595959" stroke="#000" stroke-miterlimit="8" stroke-width="2"/><text id="text50" font-family="Calibri, Calibri_MSFontService, sans-serif" font-size="22" font-weight="400" transform="translate(1680.61,380)">Exposure<tspan id="tspan44" x="3.88" y="20" font-size="16">R32_FLOAT</tspan><tspan id="tspan46" x="-5.12" y="59" font-size="16">Current frame</tspan><tspan id="tspan48" x="29.5" y="78" font-size="16">1x1</tspan></text><path id="path52" d="M 0.258096,-0.428237 57.0346,33.7906 56.5184,34.6471 -0.258096,0.428237 Z M 58.1607,28.0477 65.3413,39.3808 51.9664,38.3253 Z" transform="matrix(-1,0,0,1,1660.84,411.5)"/><rect id="rect54" width="21" height="21" x="271" y="440" fill="#595959" stroke="#000" stroke-miterlimit="8" stroke-width="2"/><text id="text56" font-family="Calibri, Calibri_MSFontService, sans-serif" font-size="21" font-weight="400" transform="translate(302.565,458)">Memory allocated</text><rect id="rect58" width="21" height="21" x="519" y="440" fill="#d9d9d9" stroke="#000" stroke-miterlimit="8" stroke-width="2"/><text id="text64" font-family="Calibri, Calibri_MSFontService, sans-serif" font-size="21" font-weight="400" transform="translate(548.709,458)">No<tspan id="tspan60" x="29.25" y="0" font-size="21">memory</tspan><tspan id="tspan62" x="105.75" y="0" font-size="21">allocate</tspan>d</text><rect id="rect66" width="179" height="90" x="762" y="199" stroke="#000" stroke-miterlimit="8" stroke-width="2"/><text id="text70" fill="#fff" font-family="Calibri, Calibri_MSFontService, sans-serif" font-size="18" font-weight="400" transform="translate(796.991,240)">Auto-exposure <tspan id="tspan68" x="34.5" y="21" font-size="18">(SPD</tspan>)</text><path id="path72" d="m 680,241 h 67.146 v 6 H 680 Z m 64.146,-6 18,9 -18,9 z"/><path id="path74" d="m 941,241 h 67.15 v 6 H 941 Z m 64.15,-6 18,9 -18,9 z"/></g></g></svg>