<svg xmlns="http://www.w3.org/2000/svg" xmlns:svg="http://www.w3.org/2000/svg" id="svg5" width="579.467" height="361.549" version="1.1" viewBox="0 0 153.317 95.66"><defs id="defs2"><clipPath id="clip0"><rect id="rect9" width="818" height="533" x="91" y="126"/></clipPath><clipPath id="clip0-4"><rect id="rect578" width="591" height="386" x="90" y="126"/></clipPath></defs><g id="layer1" transform="translate(469.25724,108.45535)"><g id="g667" clip-path="url(#clip0-4)" transform="matrix(0.26458333,0,0,0.26458333,-493.33432,-144.57045)"><rect id="rect583" width="260" height="258" x="357" y="173" fill="#fff" stroke="#000" stroke-dasharray="6 2" stroke-miterlimit="8" stroke-width="2"/><rect id="rect585" width="28" height="28" x="92" y="266" fill="#d9d9d9" stroke="#000" stroke-miterlimit="8" stroke-width="2"/><text id="text587" font-family="Calibri, Calibri_MSFontService, sans-serif" font-size="18" font-weight="400" transform="translate(101.408,286)">1</text><rect id="rect589" width="28" height="28" x="92" y="294" fill="#262626" stroke="#000" stroke-miterlimit="8" stroke-width="2"/><text id="text591" fill="#fff" font-family="Calibri, Calibri_MSFontService, sans-serif" font-size="18" font-weight="400" transform="translate(101.408,314)">4</text><rect id="rect593" width="28" height="28" x="92" y="322" fill="#7f7f7f" stroke="#000" stroke-miterlimit="8" stroke-width="2"/><text id="text595" fill="#fff" font-family="Calibri, Calibri_MSFontService, sans-serif" font-size="18" font-weight="400" transform="translate(101.408,342)">7</text><rect id="rect597" width="29" height="28" x="120" y="266" fill="#bfbfbf" stroke="#000" stroke-miterlimit="8" stroke-width="2"/><text id="text599" font-family="Calibri, Calibri_MSFontService, sans-serif" font-size="18" font-weight="400" transform="translate(129.92,286)">2</text><rect id="rect601" width="29" height="28" x="120" y="294" fill="#7f7f7f" stroke="#000" stroke-miterlimit="8" stroke-width="2"/><text id="text603" fill="#fff" font-family="Calibri, Calibri_MSFontService, sans-serif" font-size="18" font-weight="400" transform="translate(129.92,314)">5</text><rect id="rect605" width="29" height="28" x="120" y="322" fill="#404040" stroke="#000" stroke-miterlimit="8" stroke-width="2"/><text id="text607" fill="#fff" font-family="Calibri, Calibri_MSFontService, sans-serif" font-size="18" font-weight="400" transform="translate(129.919,342)">8</text><rect id="rect609" width="28" height="28" x="149" y="266" fill="#a6a6a6" stroke="#000" stroke-miterlimit="8" stroke-width="2"/><text id="text611" fill="#fff" font-family="Calibri, Calibri_MSFontService, sans-serif" font-size="18" font-weight="400" transform="translate(158.431,286)">3</text><rect id="rect613" width="28" height="28" x="149" y="294" fill="#f2f2f2" stroke="#000" stroke-miterlimit="8" stroke-width="2"/><text id="text615" font-family="Calibri, Calibri_MSFontService, sans-serif" font-size="18" font-weight="400" transform="translate(158.431,314)">6</text><rect id="rect617" width="28" height="28" x="149" y="322" fill="#262626" stroke="#000" stroke-miterlimit="8" stroke-width="2"/><text id="text619" fill="#fff" font-family="Calibri, Calibri_MSFontService, sans-serif" font-size="18" font-weight="400" transform="translate(158.431,342)">9</text><rect id="rect621" width="28" height="28" x="386" y="225" fill="#d9d9d9" stroke="#000" stroke-miterlimit="8" stroke-width="2"/><text id="text623" font-family="Calibri, Calibri_MSFontService, sans-serif" font-size="21" font-weight="400" transform="translate(394.451,247)">1</text><rect id="rect625" width="29" height="28" x="588" y="373" fill="#262626" stroke="#000" stroke-miterlimit="8" stroke-width="2"/><text id="text627" fill="#fff" font-family="Calibri, Calibri_MSFontService, sans-serif" font-size="21" font-weight="400" transform="translate(596.927,395)">9</text><rect id="rect629" width="28" height="28" x="501" y="229" fill="#7f7f7f" stroke="#000" stroke-miterlimit="8" stroke-width="2"/><text id="text631" fill="#fff" font-family="Calibri, Calibri_MSFontService, sans-serif" font-size="21" font-weight="400" transform="translate(509.738,251)">5</text><rect id="rect633" width="29" height="28" x="414" y="173" fill="#bfbfbf" stroke="#000" stroke-miterlimit="8" stroke-width="2"/><text id="text635" font-family="Calibri, Calibri_MSFontService, sans-serif" font-size="21" font-weight="400" transform="translate(423.376,195)">2</text><rect id="rect637" width="29" height="28" x="472" y="288" fill="#7f7f7f" stroke="#000" stroke-miterlimit="8" stroke-width="2"/><text id="text639" fill="#fff" font-family="Calibri, Calibri_MSFontService, sans-serif" font-size="21" font-weight="400" transform="translate(481.227,309)">7</text><rect id="rect641" width="29" height="27" x="530" y="403" fill="#404040" stroke="#000" stroke-miterlimit="8" stroke-width="2"/><text id="text643" fill="#fff" font-family="Calibri, Calibri_MSFontService, sans-serif" font-size="21" font-weight="400" transform="translate(539.077,424)">8</text><rect id="rect645" width="29" height="28" x="443" y="316" fill="#a6a6a6" stroke="#000" stroke-miterlimit="8" stroke-width="2"/><text id="text647" fill="#fff" font-family="Calibri, Calibri_MSFontService, sans-serif" font-size="21" font-weight="400" transform="translate(452.301,337)">3</text><rect id="rect649" width="29" height="28" x="357" y="342" fill="#f2f2f2" stroke="#000" stroke-miterlimit="8" stroke-width="2"/><text id="text651" font-family="Calibri, Calibri_MSFontService, sans-serif" font-size="21" font-weight="400" transform="translate(366.039,364)">6</text><rect id="rect653" width="29" height="28" x="559" y="243" fill="#262626" stroke="#000" stroke-miterlimit="8" stroke-width="2"/><text id="text655" fill="#fff" font-family="Calibri, Calibri_MSFontService, sans-serif" font-size="21" font-weight="400" transform="translate(568.002,265)">4</text><path id="path657" d="m 301.5,474 h 367.978 v 1 H 301.5 Z m 356.227,-6.932 12.74,7.432 -12.74,7.432 c -0.239,0.139 -0.545,0.059 -0.684,-0.18 -0.139,-0.238 -0.058,-0.545 0.18,-0.684 l 12,-7 v 0.864 l -12,-7 c -0.238,-0.139 -0.319,-0.445 -0.18,-0.684 0.139,-0.238 0.445,-0.319 0.684,-0.18 z"/><path id="path659" d="m 300.463,474.811 -1.459,-337.328 1,-0.004 1.459,337.328 z m -8.34,-325.541 7.377,-12.772 7.487,12.708 c 0.14,0.238 0.061,0.544 -0.177,0.684 -0.238,0.141 -0.545,0.061 -0.685,-0.177 l -7.052,-11.969 0.864,-0.004 -6.948,12.03 c -0.138,0.239 -0.444,0.321 -0.683,0.183 -0.239,-0.138 -0.321,-0.444 -0.183,-0.683 z"/><text id="text663" font-family="Calibri, Calibri_MSFontService, sans-serif" font-size="16" font-weight="400" transform="translate(482.727,498)">Y<tspan id="tspan661" x="-207.863" y="-184" font-size="16">Co</tspan></text><path id="path665" d="m 194,303 h 49.772 v 6 H 194 Z m 46.772,-6 18,9 -18,9 z"/></g></g></svg>