<svg xmlns="http://www.w3.org/2000/svg" xmlns:svg="http://www.w3.org/2000/svg" id="svg5" width="865.982" height="461.649" version="1.1" viewBox="0 0 229.125 122.145"><defs id="defs2"><clipPath id="clip0"><rect id="rect9" width="931" height="465" x="232" y="262"/></clipPath><clipPath id="clip0-5"><rect id="rect132" width="897" height="476" x="232" y="251"/></clipPath><clipPath id="clip0-0"><rect id="rect313" width="897" height="476" x="232" y="251"/></clipPath></defs><g id="layer1" transform="translate(442.89752,81.176205)"><g id="g376" clip-path="url(#clip0-0)" transform="matrix(0.26458333,0,0,0.26458333,-508.39182,-148.60245)"><rect id="rect318" width="304" height="285" x="301" y="309" fill="#f2f2f2" stroke="#000" stroke-miterlimit="8" stroke-width="2"/><path id="path320" d="M 454,310.491 V 592.85 h -1 V 310.491 Z m -7.932,11.747 7.432,-12.74 7.432,12.74 c 0.139,0.239 0.058,0.545 -0.18,0.684 -0.239,0.139 -0.545,0.058 -0.684,-0.18 l -7,-12 h 0.864 l -7,12 c -0.139,0.238 -0.445,0.319 -0.684,0.18 -0.238,-0.139 -0.319,-0.445 -0.18,-0.684 z m 14.864,258.865 -7.432,12.741 -7.432,-12.741 c -0.139,-0.238 -0.058,-0.545 0.18,-0.684 0.239,-0.139 0.545,-0.058 0.684,0.18 l 7,12 h -0.864 l 7,-12 c 0.139,-0.238 0.446,-0.319 0.684,-0.18 0.239,0.139 0.319,0.446 0.18,0.684 z"/><path id="path322" d="M 0.984252,-0.499999 302.49,-0.499843 v 1 L 0.984252,0.500001 Z M 12.7381,7.4319 -0.00231745,0 12.7381,-7.43188 c 0.2385,-0.13914 0.5447,-0.05857 0.6838,0.17995 0.1391,0.23853 0.0586,0.54469 -0.18,0.68383 L 1.24194,0.43189 V -0.431889 L 13.2419,6.56812 c 0.2386,0.13914 0.3191,0.4453 0.18,0.68382 -0.1392,0.23853 -0.4453,0.3191 -0.6838,0.17996 z M 290.742,-7.43174 303.483,1.57377e-4 290.742,7.43204 c -0.238,0.13914 -0.544,0.05857 -0.683,-0.17995 -0.14,-0.23853 -0.059,-0.54469 0.18,-0.68383 l 12,-6.999993 v 0.863779 l -12,-7.000006 c -0.239,-0.13914 -0.32,-0.4453 -0.18,-0.68383 0.139,-0.23852 0.445,-0.31909 0.683,-0.17995 z" transform="matrix(-1,0,0,1,604.98,452.5)"/><text id="text332" font-family="Calibri, Calibri_MSFontService, sans-serif" font-size="21" font-weight="400" transform="translate(379.835,665)">Unit pixel offset*<tspan id="tspan324" x="56.375" y="-376" font-size="21">-</tspan>0.5<tspan id="tspan326" x="62.907" y="-40" font-size="21">0.5</tspan><tspan id="tspan328" x="233.916" y="-206" font-size="21">0.5</tspan><tspan id="tspan330" x="-133.005" y="-206" font-size="21">-</tspan>0.5</text><rect id="rect334" width="304" height="285" x="779" y="309" fill="#f2f2f2" stroke="#000" stroke-miterlimit="8" stroke-width="2"/><path id="path336" d="M 0.500001,0.984252 0.500157,283.003 h -1 L -0.499999,0.984252 Z M -7.43188,12.7381 0,-0.00231745 7.4319,12.7381 c 0.13914,0.2385 0.05857,0.5446 -0.17996,0.6838 -0.23852,0.1391 -0.54468,0.0586 -0.68382,-0.18 L -0.431889,1.24194 H 0.43189 L -6.5681,13.2419 c -0.13914,0.2386 -0.4453,0.3191 -0.68383,0.18 -0.23852,-0.1391 -0.31909,-0.4453 -0.17995,-0.6838 z M 7.43204,271.255 1.57342e-4,283.996 -7.43174,271.255 c -0.13914,-0.238 -0.05857,-0.544 0.17995,-0.683 0.23853,-0.139 0.54469,-0.059 0.68383,0.18 l 7.000006,12 h -0.863779 l 6.999993,-12 c 0.13914,-0.239 0.4453,-0.319 0.68383,-0.18 0.23852,0.139 0.31909,0.445 0.17995,0.683 z" transform="matrix(1,0,0,-1,931.5,594.494)"/><path id="path338" d="m 780.498,451.002 301.492,0.477 v 1 l -301.493,-0.477 z m 11.728,7.95 -12.728,-7.452 12.752,-7.412 c 0.239,-0.138 0.545,-0.057 0.683,0.181 0.139,0.239 0.058,0.545 -0.181,0.684 l -12.011,6.981 0.002,-0.864 11.989,7.019 c 0.238,0.14 0.318,0.446 0.178,0.684 -0.139,0.238 -0.445,0.319 -0.684,0.179 z m 278.024,-14.424 12.73,7.452 -12.75,7.412 c -0.24,0.139 -0.54,0.058 -0.68,-0.181 -0.14,-0.239 -0.06,-0.545 0.18,-0.684 l 12.01,-6.981 v 0.864 l -11.99,-7.019 c -0.24,-0.139 -0.32,-0.446 -0.18,-0.684 0.14,-0.238 0.45,-0.318 0.68,-0.179 z"/><text id="text352" font-family="Calibri, Calibri_MSFontService, sans-serif" font-size="21" font-weight="400" transform="translate(859.831,665)">Projection offset<tspan id="tspan340" x="-559.689" y="49" font-size="14">*</tspan><tspan id="tspan342" x="-549.439" y="49" font-size="14">-</tspan><tspan id="tspan344" x="-541.939" y="49" font-size="14">Y component is inverted to match UV space</tspan><tspan id="tspan346" x="-132.918" y="-205" font-family="'Cambria Math', 'Cambria Math_MSFontService', sans-serif" font-size="21">âˆ’</tspan><tspan id="tspan348" x="-111.488" y="-220" font-family="'Cambria Math', 'Cambria Math_MSFontService', sans-serif" font-size="21">1</tspan><tspan id="tspan350" x="-113.668" y="-191" font-family="'Cambria Math', 'Cambria Math_MSFontService', sans-serif" font-size="21">ğ‘¤</tspan></text><path id="path354" fill-rule="evenodd" d="m 746.604,453.415 h 8 8 v 1 h -8 -8 z"/><text id="text360" font-family="'Cambria Math', 'Cambria Math_MSFontService', sans-serif" font-size="21" font-weight="400" transform="translate(910.115,630)">âˆ’<tspan id="tspan356" x="19.43" y="-15" font-size="21">1</tspan><tspan id="tspan358" x="19.25" y="14" font-size="21">â„</tspan></text><path id="path362" fill-rule="evenodd" d="m 929.795,623.439 h 6 6 v 1 h -6 -6 z"/><text id="text366" font-family="'Cambria Math', 'Cambria Math_MSFontService', sans-serif" font-size="21" font-weight="400" transform="translate(924.727,269)">1<tspan id="tspan364" x="-.18" y="30" font-size="21">â„</tspan></text><path id="path368" fill-rule="evenodd" d="m 924.607,277.953 h 6 6 v 1 h -6 -6 z"/><text id="text372" font-family="'Cambria Math', 'Cambria Math_MSFontService', sans-serif" font-size="21" font-weight="400" transform="translate(1099.64,445)">1<tspan id="tspan370" x="-2.18" y="30" font-size="21">ğ‘¤</tspan></text><path id="path374" fill-rule="evenodd" d="m 1097.52,453.587 h 8 8 v 1 h -8 -8 z"/></g></g></svg>