<svg xmlns="http://www.w3.org/2000/svg" xmlns:svg="http://www.w3.org/2000/svg" id="svg4107" width="433" height="354.368" version="1.1" viewBox="0 0 114.565 93.76"><defs id="defs4104"><clipPath id="clip0"><rect id="rect4111" width="433" height="364" x="238" y="119"/></clipPath></defs><g id="layer1" transform="translate(162.74621,-52.46029)"><g id="g4138" clip-path="url(#clip0)" transform="matrix(0.26458333,0,0,0.26458333,-225.71704,18.639099)"><path id="path4116" d="M 0.501077,0.989431 0.570418,64.7178 -0.429581,64.7189 -0.498923,0.990519 Z M -7.41803,12.7461 -2.54736e-6,-0.00231738 7.44574,12.73 c 0.1394,0.2383 0.05917,0.5446 -0.17921,0.684 -0.23837,0.1394 -0.54462,0.0592 -0.68402,-0.1792 L -0.430538,1.2424 0.433241,1.24146 -6.5537,13.2491 c -0.13888,0.2387 -0.44495,0.3196 -0.68363,0.1807 -0.23867,-0.1389 -0.31958,-0.445 -0.1807,-0.6837 z M 7.48952,52.9624 0.0714987,65.7108 -7.37425,52.9785 c -0.1394,-0.2383 -0.05916,-0.5446 0.17921,-0.684 0.23837,-0.1394 0.54462,-0.0591 0.68402,0.1792 l 7.013054,11.9924 -0.863778,9e-4 6.986934,-12.0076 c 0.13888,-0.2386 0.44496,-0.3195 0.68363,-0.1807 0.23868,0.1389 0.31958,0.445 0.1807,0.6837 z" transform="matrix(0,1,1,0,588.5,178.5)"/><text id="text4120" font-family="'Cambria Math', 'Cambria Math_MSFontService', sans-serif" font-size="36" font-weight="400" transform="translate(587.798,153)">𝒌<tspan id="tspan4118" x="22" y="7" font-size="26">𝑠𝑒𝑝</tspan></text><rect id="rect4122" width="14" height="77" x="573" y="278" fill="#bfbfbf" stroke="#000" stroke-miterlimit="8" stroke-width="2"/><rect id="rect4124" width="14" height="77" x="656" y="362" fill="#404040" stroke="#000" stroke-miterlimit="8" stroke-width="2"/><path id="path4126" fill-rule="evenodd" stroke="#000" stroke-miterlimit="8" stroke-width="2" d="m 344,362 -39,-37 39,-37 z"/><rect id="rect4128" width="82" height="74" x="238" y="288"/><path id="path4130" d="M 1.83093e-6,-2.25 182.275,-2.24985 v 4.5 L -1.83093e-6,2.25 Z M 180.026,-6.74985 193.526,1.5748e-4 180.026,6.75015 Z" transform="matrix(1,0,0,-1,344.5,325.5)"/><rect id="rect4132" width="14" height="77" x="607" y="201" fill="#f2f2f2" stroke="#000" stroke-miterlimit="8" stroke-width="2"/><path id="path4134" fill="none" fill-rule="evenodd" stroke="#000" stroke-dasharray="4 3" stroke-miterlimit="8" d="M 589.5,178.5 V 482.196"/><path id="path4136" fill="none" fill-rule="evenodd" stroke="#000" stroke-dasharray="4 3" stroke-miterlimit="8" d="M 0,0 1.5748e-4,303.696" transform="matrix(1,0,0,-1,654.5,482.196)"/></g></g></svg>