<svg xmlns="http://www.w3.org/2000/svg" xmlns:svg="http://www.w3.org/2000/svg" id="svg777" width="470" height="232.195" version="1.1" viewBox="0 0 124.354 61.435"><defs id="defs774"><clipPath id="clip0"><rect id="rect781" width="470" height="251" x="872" y="92"/></clipPath><clipPath id="clip0-8"><rect id="rect428" width="470" height="251" x="724" y="418"/></clipPath></defs><g id="layer1" transform="translate(48.828399,-146.09089)"><g id="g567" clip-path="url(#clip0-8)" transform="matrix(0.26458333,0,0,0.26458333,-240.38673,35.49506)"><rect id="rect433" width="52" height="52" x="726" y="571" fill="#d9d9d9" stroke="#000" stroke-miterlimit="8" stroke-width="2"/><rect id="rect435" width="52" height="52" x="777" y="419" fill="#d9d9d9" stroke="#000" stroke-miterlimit="8" stroke-width="2"/><rect id="rect437" width="52" height="52" x="725" y="419" fill="#d9d9d9" stroke="#000" stroke-miterlimit="8" stroke-width="2"/><rect id="rect439" width="52" height="52" x="725" y="467" fill="#d9d9d9" stroke="#000" stroke-miterlimit="8" stroke-width="2"/><rect id="rect441" width="52" height="52" x="777" y="519" fill="#d9d9d9" stroke="#000" stroke-miterlimit="8" stroke-width="2"/><rect id="rect443" width="52" height="52" x="725" y="519" fill="#d9d9d9" stroke="#000" stroke-miterlimit="8" stroke-width="2"/><path id="path445" fill-rule="evenodd" d="m 743,443 c 0,-4.418 3.582,-8 8,-8 4.418,0 8,3.582 8,8 0,4.418 -3.582,8 -8,8 -4.418,0 -8,-3.582 -8,-8 z"/><path id="path447" fill-rule="evenodd" d="m 795,443 c 0,-4.418 3.582,-8 8,-8 4.418,0 8,3.582 8,8 0,4.418 -3.582,8 -8,8 -4.418,0 -8,-3.582 -8,-8 z"/><path id="path449" fill-rule="evenodd" d="m 795,545 c 0,-4.418 3.582,-8 8,-8 4.418,0 8,3.582 8,8 0,4.418 -3.582,8 -8,8 -4.418,0 -8,-3.582 -8,-8 z"/><path id="path451" fill-rule="evenodd" d="m 743,546 c 0,-4.418 3.358,-8 7.5,-8 4.142,0 7.5,3.582 7.5,8 0,4.418 -3.358,8 -7.5,8 -4.142,0 -7.5,-3.582 -7.5,-8 z"/><rect id="rect453" width="52" height="52" x="829" y="419" fill="#d9d9d9" stroke="#000" stroke-miterlimit="8" stroke-width="2"/><rect id="rect455" width="52" height="52" x="829" y="467" fill="#d9d9d9" stroke="#000" stroke-miterlimit="8" stroke-width="2"/><rect id="rect457" width="52" height="52" x="829" y="519" fill="#d9d9d9" stroke="#000" stroke-miterlimit="8" stroke-width="2"/><path id="path459" fill-rule="evenodd" d="m 847,443 c 0,-4.418 3.582,-8 8,-8 4.418,0 8,3.582 8,8 0,4.418 -3.582,8 -8,8 -4.418,0 -8,-3.582 -8,-8 z"/><path id="path461" fill-rule="evenodd" d="m 847,495 c 0,-4.418 3.582,-8 8,-8 4.418,0 8,3.582 8,8 0,4.418 -3.582,8 -8,8 -4.418,0 -8,-3.582 -8,-8 z"/><path id="path463" fill-rule="evenodd" d="m 847,545 c 0,-4.418 3.582,-8 8,-8 4.418,0 8,3.582 8,8 0,4.418 -3.582,8 -8,8 -4.418,0 -8,-3.582 -8,-8 z"/><rect id="rect465" width="52" height="52" x="881" y="419" fill="#d9d9d9" stroke="#000" stroke-miterlimit="8" stroke-width="2"/><rect id="rect467" width="52" height="52" x="881" y="467" fill="#d9d9d9" stroke="#000" stroke-miterlimit="8" stroke-width="2"/><rect id="rect469" width="52" height="52" x="881" y="519" fill="#d9d9d9" stroke="#000" stroke-miterlimit="8" stroke-width="2"/><path id="path471" fill-rule="evenodd" d="m 899,443 c 0,-4.418 3.582,-8 8,-8 4.418,0 8,3.582 8,8 0,4.418 -3.582,8 -8,8 -4.418,0 -8,-3.582 -8,-8 z"/><path id="path473" fill-rule="evenodd" d="m 899,495 c 0,-4.418 3.582,-8 8,-8 4.418,0 8,3.582 8,8 0,4.418 -3.582,8 -8,8 -4.418,0 -8,-3.582 -8,-8 z"/><path id="path475" fill-rule="evenodd" d="m 899,545 c 0,-4.418 3.582,-8 8,-8 4.418,0 8,3.582 8,8 0,4.418 -3.582,8 -8,8 -4.418,0 -8,-3.582 -8,-8 z"/><rect id="rect477" width="52" height="52" x="777" y="571" fill="#d9d9d9" stroke="#000" stroke-miterlimit="8" stroke-width="2"/><path id="path479" fill-rule="evenodd" d="m 795,595.5 c 0,-4.142 3.582,-7.5 8,-7.5 4.418,0 8,3.358 8,7.5 0,4.142 -3.582,7.5 -8,7.5 -4.418,0 -8,-3.358 -8,-7.5 z"/><rect id="rect481" width="52" height="52" x="829" y="571" fill="#d9d9d9" stroke="#000" stroke-miterlimit="8" stroke-width="2"/><path id="path483" fill-rule="evenodd" d="m 847,595.5 c 0,-4.142 3.582,-7.5 8,-7.5 4.418,0 8,3.358 8,7.5 0,4.142 -3.582,7.5 -8,7.5 -4.418,0 -8,-3.358 -8,-7.5 z"/><rect id="rect485" width="52" height="52" x="881" y="571" fill="#d9d9d9" stroke="#000" stroke-miterlimit="8" stroke-width="2"/><path id="path487" fill-rule="evenodd" d="m 899,595.5 c 0,-4.142 3.582,-7.5 8,-7.5 4.418,0 8,3.358 8,7.5 0,4.142 -3.582,7.5 -8,7.5 -4.418,0 -8,-3.358 -8,-7.5 z"/><rect id="rect489" width="52" height="52" x="1037" y="419" fill="#d9d9d9" stroke="#000" stroke-miterlimit="8" stroke-width="2"/><rect id="rect491" width="52" height="52" x="985" y="419" fill="#d9d9d9" stroke="#000" stroke-miterlimit="8" stroke-width="2"/><rect id="rect493" width="52" height="52" x="1037" y="467" fill="#d9d9d9" stroke="#000" stroke-miterlimit="8" stroke-width="2"/><rect id="rect495" width="52" height="52" x="985" y="467" fill="#d9d9d9" stroke="#000" stroke-miterlimit="8" stroke-width="2"/><rect id="rect497" width="52" height="52" x="1037" y="519" fill="#d9d9d9" stroke="#000" stroke-miterlimit="8" stroke-width="2"/><rect id="rect499" width="52" height="52" x="985" y="519" fill="#d9d9d9" stroke="#000" stroke-miterlimit="8" stroke-width="2"/><path id="path501" fill-rule="evenodd" d="m 1003,493.5 c 0,-4.142 3.58,-7.5 8,-7.5 4.42,0 8,3.358 8,7.5 0,4.142 -3.58,7.5 -8,7.5 -4.42,0 -8,-3.358 -8,-7.5 z"/><path id="path503" fill-rule="evenodd" d="m 1003,443 c 0,-4.418 3.58,-8 8,-8 4.42,0 8,3.582 8,8 0,4.418 -3.58,8 -8,8 -4.42,0 -8,-3.582 -8,-8 z"/><path id="path505" fill-rule="evenodd" d="m 1055,443 c 0,-4.418 3.58,-8 8,-8 4.42,0 8,3.582 8,8 0,4.418 -3.58,8 -8,8 -4.42,0 -8,-3.582 -8,-8 z"/><path id="path507" fill-rule="evenodd" d="m 1055,495 c 0,-4.418 3.58,-8 8,-8 4.42,0 8,3.582 8,8 0,4.418 -3.58,8 -8,8 -4.42,0 -8,-3.582 -8,-8 z"/><path id="path509" fill-rule="evenodd" d="m 1055,545 c 0,-4.418 3.58,-8 8,-8 4.42,0 8,3.582 8,8 0,4.418 -3.58,8 -8,8 -4.42,0 -8,-3.582 -8,-8 z"/><path id="path511" fill-rule="evenodd" d="m 1003,546 c 0,-4.418 3.36,-8 7.5,-8 4.14,0 7.5,3.582 7.5,8 0,4.418 -3.36,8 -7.5,8 -4.14,0 -7.5,-3.582 -7.5,-8 z"/><rect id="rect513" width="52" height="52" x="1089" y="419" fill="#d9d9d9" stroke="#000" stroke-miterlimit="8" stroke-width="2"/><rect id="rect515" width="52" height="52" x="1089" y="467" fill="#d9d9d9" stroke="#000" stroke-miterlimit="8" stroke-width="2"/><rect id="rect517" width="52" height="52" x="1089" y="519" fill="#d9d9d9" stroke="#000" stroke-miterlimit="8" stroke-width="2"/><path id="path519" fill-rule="evenodd" d="m 1107,443 c 0,-4.418 3.58,-8 8,-8 4.42,0 8,3.582 8,8 0,4.418 -3.58,8 -8,8 -4.42,0 -8,-3.582 -8,-8 z"/><path id="path521" fill-rule="evenodd" d="m 1107,495 c 0,-4.418 3.58,-8 8,-8 4.42,0 8,3.582 8,8 0,4.418 -3.58,8 -8,8 -4.42,0 -8,-3.582 -8,-8 z"/><path id="path523" fill-rule="evenodd" d="m 1107,545 c 0,-4.418 3.58,-8 8,-8 4.42,0 8,3.582 8,8 0,4.418 -3.58,8 -8,8 -4.42,0 -8,-3.582 -8,-8 z"/><rect id="rect525" width="52" height="52" x="1141" y="419" fill="#d9d9d9" stroke="#000" stroke-miterlimit="8" stroke-width="2"/><rect id="rect527" width="52" height="52" x="1141" y="467" fill="#d9d9d9" stroke="#000" stroke-miterlimit="8" stroke-width="2"/><rect id="rect529" width="52" height="52" x="1141" y="519" fill="#d9d9d9" stroke="#000" stroke-miterlimit="8" stroke-width="2"/><path id="path531" fill-rule="evenodd" d="m 1159,443 c 0,-4.418 3.58,-8 8,-8 4.42,0 8,3.582 8,8 0,4.418 -3.58,8 -8,8 -4.42,0 -8,-3.582 -8,-8 z"/><path id="path533" fill-rule="evenodd" d="m 1159,495 c 0,-4.418 3.58,-8 8,-8 4.42,0 8,3.582 8,8 0,4.418 -3.58,8 -8,8 -4.42,0 -8,-3.582 -8,-8 z"/><path id="path535" fill-rule="evenodd" d="m 1159,545 c 0,-4.418 3.58,-8 8,-8 4.42,0 8,3.582 8,8 0,4.418 -3.58,8 -8,8 -4.42,0 -8,-3.582 -8,-8 z"/><rect id="rect537" width="52" height="52" x="985" y="571" fill="#d9d9d9" stroke="#000" stroke-miterlimit="8" stroke-width="2"/><path id="path539" fill-rule="evenodd" d="m 1003,595.5 c 0,-4.142 3.58,-7.5 8,-7.5 4.42,0 8,3.358 8,7.5 0,4.142 -3.58,7.5 -8,7.5 -4.42,0 -8,-3.358 -8,-7.5 z"/><rect id="rect541" width="52" height="52" x="1089" y="571" fill="#d9d9d9" stroke="#000" stroke-miterlimit="8" stroke-width="2"/><path id="path543" fill-rule="evenodd" d="m 1107,595.5 c 0,-4.142 3.58,-7.5 8,-7.5 4.42,0 8,3.358 8,7.5 0,4.142 -3.58,7.5 -8,7.5 -4.42,0 -8,-3.358 -8,-7.5 z"/><rect id="rect545" width="52" height="52" x="1141" y="571" fill="#d9d9d9" stroke="#000" stroke-miterlimit="8" stroke-width="2"/><path id="path547" fill-rule="evenodd" d="m 1159,595.5 c 0,-4.142 3.58,-7.5 8,-7.5 4.42,0 8,3.358 8,7.5 0,4.142 -3.58,7.5 -8,7.5 -4.42,0 -8,-3.358 -8,-7.5 z"/><rect id="rect549" width="52" height="52" x="777" y="467" fill="#7f7f7f" stroke="#000" stroke-miterlimit="8" stroke-width="6"/><path id="path551" fill-rule="evenodd" d="m 743,493.5 c 0,-4.142 3.582,-7.5 8,-7.5 4.418,0 8,3.358 8,7.5 0,4.142 -3.582,7.5 -8,7.5 -4.418,0 -8,-3.358 -8,-7.5 z"/><path id="path553" fill-rule="evenodd" d="m 795,495 c 0,-4.418 3.582,-8 8,-8 4.418,0 8,3.582 8,8 0,4.418 -3.582,8 -8,8 -4.418,0 -8,-3.582 -8,-8 z"/><path id="path555" fill-rule="evenodd" d="m 743,595.5 c 0,-4.142 3.582,-7.5 8,-7.5 4.418,0 8,3.358 8,7.5 0,4.142 -3.582,7.5 -8,7.5 -4.418,0 -8,-3.358 -8,-7.5 z"/><rect id="rect557" width="52" height="52" x="1037" y="571" fill="#7f7f7f" stroke="#000" stroke-miterlimit="8" stroke-width="6"/><path id="path559" fill-rule="evenodd" d="m 1055,595.5 c 0,-4.142 3.58,-7.5 8,-7.5 4.42,0 8,3.358 8,7.5 0,4.142 -3.58,7.5 -8,7.5 -4.42,0 -8,-3.358 -8,-7.5 z"/><path id="path561" d="m 1057.96,591.577 -243.323,-87.633 1.016,-2.822 243.327,87.633 z M 814.994,508.856 809.5,500.5 l 9.56,-2.934 z"/><text id="text565" font-family="Calibri, Calibri_MSFontService, sans-serif" font-size="21" font-weight="400" transform="translate(763.067,650)">Previous frame<tspan id="tspan563" x="264.793" y="-2" font-size="21">Current frame</tspan></text></g></g></svg>