<svg xmlns="http://www.w3.org/2000/svg" xmlns:svg="http://www.w3.org/2000/svg" id="svg2500" width="1114" height="342" version="1.1" viewBox="0 0 294.746 90.487"><defs id="defs2497"><clipPath id="clip0"><rect id="rect2504" width="1114" height="344" x="44" y="95"/></clipPath></defs><g id="layer1" transform="translate(214.39353,-61.921199)"><g id="g2585" clip-path="url(#clip0)" transform="matrix(0.26458333,0,0,0.26458333,-226.0352,36.785783)"><path id="path2509" d="m 422.002,263 439.846,0.248 -0.003,6 L 421.998,269 Z m 436.85,-5.753 17.995,9.01 -18.005,8.99 z"/><rect id="rect2511" width="358" height="340" x="422" y="96"/><text id="text2517" fill="#fff" font-family="Calibri, Calibri_MSFontService, sans-serif" font-size="24" font-weight="400" transform="translate(554.201,125)">FidelityFX <tspan id="tspan2513" x="-53.67" y="29" font-size="24">Super Resolution</tspan><tspan id="tspan2515" x="117.16" y="29" font-size="24">2.0</tspan></text><path id="path2519" fill="#fff" d="m 726,261 h 39 v 92.666 h -24 v -6 h 21 l -3,3 V 264 l 3,3 h -36 z m 18,98.666 -18,-9 18,-9 z"/><rect id="rect2521" width="280" height="102" x="877" y="215" fill="#fff" stroke="#000" stroke-miterlimit="8" stroke-width="2"/><text id="text2529" font-family="Calibri, Calibri_MSFontService, sans-serif" font-size="20" font-weight="400" transform="translate(960.821,239)">Output buffer<tspan id="tspan2523" x="-11.63" y="18" font-size="14">APPLICATION SPECIFIED</tspan><tspan id="tspan2525" x="15.75" y="52" font-size="14">Current frame</tspan><tspan id="tspan2527" x="-11" y="69" font-size="14">Presentation resolution</tspan></text><rect id="rect2531" width="280" height="103" x="45" y="96" fill="#fff" stroke="#000" stroke-miterlimit="8" stroke-width="2"/><text id="text2541" font-family="Calibri, Calibri_MSFontService, sans-serif" font-size="20" font-weight="400" transform="translate(132.951,122)">Depth buffer<tspan id="tspan2533" x="-48" y="18" font-size="14">APPLICATION SPECIFIED (1x FLOAT)</tspan><tspan id="tspan2535" x="11.63" y="52" font-size="14">Current frame</tspan><tspan id="tspan2537" x="1" y="69" font-size="14">Render</tspan><tspan id="tspan2539" x="45.25" y="69" font-size="14">resolution</tspan></text><rect id="rect2543" width="280" height="103" x="45" y="214" fill="#fff" stroke="#000" stroke-miterlimit="8" stroke-width="2"/><text id="text2551" font-family="Calibri, Calibri_MSFontService, sans-serif" font-size="20" font-weight="400" transform="translate(125.451,239)">Velocity buffer<tspan id="tspan2545" x="-40.5" y="18" font-size="14">APPLICATION SPECIFIED (2x FLOAT)</tspan><tspan id="tspan2547" x="19.13" y="52" font-size="14">Current frame</tspan><tspan id="tspan2549" x="8.5" y="69" font-size="14">Render resolution</tspan></text><path id="path2553" d="m 325,145 h 51.277 v 121.258 l -3,-3 h 33.277 v 6 H 370.277 V 148 l 3,3 H 325 Z m 78.554,112.258 18,9 -18,9 z"/><rect id="rect2555" width="280" height="104" x="45" y="332" fill="#fff" stroke="#000" stroke-miterlimit="8" stroke-width="2"/><text id="text2563" font-family="Calibri, Calibri_MSFontService, sans-serif" font-size="20" font-weight="400" transform="translate(136.331,357)">Color buffer<tspan id="tspan2557" x="-19.13" y="18" font-size="14">APPLICATION SPECIFIED</tspan><tspan id="tspan2559" x="8.25" y="52" font-size="14">Current frame</tspan><tspan id="tspan2561" x="-2.38" y="69" font-size="14">Render resolution</tspan></text><path id="path2565" d="m 0,-3 h 51.2771 v 121.296 l -3,-3 H 81.554 v 6 H 45.2771 V 0 l 3,3 H 0 Z m 78.554,112.296 18,9 -18,9 z" transform="matrix(1,0,0,-1,325,384.296)"/><rect id="rect2567" width="251" height="98" x="475" y="302" fill="#fff" stroke="#000" stroke-miterlimit="8" stroke-width="2"/><text id="text2577" font-family="Calibri, Calibri_MSFontService, sans-serif" font-size="20" font-weight="400" transform="translate(543.899,324)">Output<tspan id="tspan2569" x="62.75" y="0" font-size="20">buffer</tspan><tspan id="tspan2571" x="-9.25" y="18" font-size="14">R16G16B16A16_FLOAT</tspan><tspan id="tspan2573" x="13.12" y="52" font-size="14">Previous frame</tspan><tspan id="tspan2575" x="-11" y="69" font-size="14">Presentation resolution</tspan></text><path id="path2579" d="m 325,263 h 81.554 v 6 H 325 Z m 78.554,-6 18,9 -18,9 z"/><rect id="rect2581" width="251" height="40" x="475" y="244" fill="#fff"/><path id="path2583" fill="#fff" d="M 477,353.666 H 438 V 261 h 22 v 6 h -19 l 3,-3 v 86.666 l -3,-3 h 36 z M 457,255 l 18,9 -18,9 z"/></g></g></svg>