<svg xmlns="http://www.w3.org/2000/svg" xmlns:svg="http://www.w3.org/2000/svg" id="svg2384" width="1157" height="181.255" version="1.1" viewBox="0 0 306.123 47.957"><defs id="defs2381"><clipPath id="clip0"><rect id="rect2388" width="1157" height="195" x="97" y="180"/></clipPath></defs><g id="layer1" transform="translate(323.50476,-98.835922)"><g id="g2437" clip-path="url(#clip0)" transform="matrix(0.26458333,0,0,0.26458333,-349.16934,47.574194)"><rect id="rect2393" width="182" height="103" x="341" y="271" fill="#fff" stroke="#000" stroke-miterlimit="8" stroke-width="2"/><text id="text2397" font-family="Calibri, Calibri_MSFontService, sans-serif" font-size="20" font-weight="400" transform="translate(369.29,317)">Post Processing<tspan id="tspan2395" x="57.25" y="24" font-size="20">A</tspan></text><rect id="rect2399" width="182" height="103" x="98" y="271" fill="#fff" stroke="#000" stroke-miterlimit="8" stroke-width="2"/><text id="text2401" font-family="Calibri, Calibri_MSFontService, sans-serif" font-size="20" font-weight="400" transform="translate(147.588,329)">Rendering</text><rect id="rect2403" width="182" height="103" x="584" y="271" stroke="#000" stroke-miterlimit="8" stroke-width="2"/><text id="text2409" fill="#fff" font-family="Calibri, Calibri_MSFontService, sans-serif" font-size="20" font-weight="400" transform="translate(635.986,305)">FidelityFX <tspan id="tspan2405" x="-29.62" y="24" font-size="20">Super Resolution</tspan><tspan id="tspan2407" x="-5.5" y="48" font-size="20">(Temporal)</tspan></text><path id="path2411" d="m 766.019,319 46.042,0.291 -0.038,5.999 -46.042,-0.29 z m 43.08,-5.728 17.943,9.113 -18.057,8.886 z"/><path id="path2413" d="m 523,319 h 46.042 v 6 H 523 Z m 43.042,-6 18,9 -18,9 z"/><rect id="rect2415" width="182" height="103" x="1071" y="271" fill="#fff" stroke="#000" stroke-miterlimit="8" stroke-width="2"/><text id="text2417" font-family="Calibri, Calibri_MSFontService, sans-serif" font-size="20" font-weight="400" transform="translate(1142.77,329)">HUD</text><path id="path2419" d="M 0.0189386,-2.99994 46.0608,-2.70928 46.0229,3.2906 -0.0189386,2.99994 Z M 43.0988,-8.7281 61.0416,0.385354 42.9851,9.27154 Z" transform="matrix(1,0,0,-1,1009,322.385)"/><text id="text2421" font-family="Calibri, Calibri_MSFontService, sans-serif" font-size="22" font-weight="400" transform="translate(440.437,208)">Linear</text><path id="path2423" d="m 468.82,221.116 84.672,70.715 -0.641,0.768 -84.671,-70.715 z m 86.663,65.212 5.364,12.297 -13.056,-3.087 z"/><text id="text2425" font-family="Calibri, Calibri_MSFontService, sans-serif" font-size="22" font-weight="400" transform="translate(768.995,208)">Linear</text><path id="path2427" d="M 0.498061,-0.0439896 6.43008,67.1199 5.43396,67.2078 -0.498061,0.0439896 Z M 11.7328,64.6437 6.81181,77.125 -0.220673,65.6994 Z" transform="matrix(-1,0,0,1,797.312,221.5)"/><path id="path2429" d="M 7.73966e-6,-3 46.0416,-2.99988 v 6 L -7.73966e-6,3 Z M 43.0416,-8.99989 61.0416,1.5748e-4 43.0415,9.00011 Z" transform="matrix(1,0,0,-1,280,322)"/><rect id="rect2431" width="182" height="103" x="827" y="271" fill="#fff" stroke="#000" stroke-miterlimit="8" stroke-width="2"/><text id="text2435" font-family="Calibri, Calibri_MSFontService, sans-serif" font-size="20" font-weight="400" transform="translate(855.442,317)">Post Processing<tspan id="tspan2433" x="57.5" y="24" font-size="20">B</tspan></text></g></g></svg>