<svg xmlns="http://www.w3.org/2000/svg" xmlns:svg="http://www.w3.org/2000/svg" id="svg1301" width="629.082" height="332.302" version="1.1" viewBox="0 0 166.445 87.922"><defs id="defs1298"><clipPath id="clip0"><rect id="rect1305" width="649" height="356" x="331" y="274"/></clipPath></defs><g id="layer1" transform="translate(229.51097,-41.090793)"><g id="g1456" clip-path="url(#clip0)" transform="matrix(0.26458333,0,0,0.26458333,-319.71746,-35.880218)"><rect id="rect1310" width="52" height="52" x="445" y="380" fill="#7f7f7f" stroke="#000" stroke-miterlimit="8" stroke-width="2"/><rect id="rect1312" width="52" height="52" x="393" y="380" fill="#d9d9d9" stroke="#000" stroke-miterlimit="8" stroke-width="2"/><rect id="rect1314" width="52" height="52" x="445" y="429" fill="#7f7f7f" stroke="#000" stroke-miterlimit="8" stroke-width="2"/><rect id="rect1316" width="52" height="52" x="393" y="429" fill="#7f7f7f" stroke="#000" stroke-miterlimit="8" stroke-width="2"/><rect id="rect1318" width="52" height="52" x="445" y="481" fill="#7f7f7f" stroke="#000" stroke-miterlimit="8" stroke-width="2"/><rect id="rect1320" width="52" height="52" x="393" y="481" fill="#d9d9d9" stroke="#000" stroke-miterlimit="8" stroke-width="2"/><path id="path1322" fill-rule="evenodd" d="m 411,455.5 c 0,-4.142 3.582,-7.5 8,-7.5 4.418,0 8,3.358 8,7.5 0,4.142 -3.582,7.5 -8,7.5 -4.418,0 -8,-3.358 -8,-7.5 z"/><path id="path1324" fill-rule="evenodd" d="m 411,404.5 c 0,-4.142 3.582,-7.5 8,-7.5 4.418,0 8,3.358 8,7.5 0,4.142 -3.582,7.5 -8,7.5 -4.418,0 -8,-3.358 -8,-7.5 z"/><path id="path1326" fill-rule="evenodd" d="m 463,404.5 c 0,-4.142 3.582,-7.5 8,-7.5 4.418,0 8,3.358 8,7.5 0,4.142 -3.582,7.5 -8,7.5 -4.418,0 -8,-3.358 -8,-7.5 z"/><path id="path1328" fill-rule="evenodd" d="m 463,456.5 c 0,-4.142 3.582,-7.5 8,-7.5 4.418,0 8,3.358 8,7.5 0,4.142 -3.582,7.5 -8,7.5 -4.418,0 -8,-3.358 -8,-7.5 z"/><path id="path1330" fill-rule="evenodd" d="m 463,507 c 0,-4.418 3.582,-8 8,-8 4.418,0 8,3.582 8,8 0,4.418 -3.582,8 -8,8 -4.418,0 -8,-3.582 -8,-8 z"/><path id="path1332" fill-rule="evenodd" d="m 411,507.5 c 0,-4.142 3.358,-7.5 7.5,-7.5 4.142,0 7.5,3.358 7.5,7.5 0,4.142 -3.358,7.5 -7.5,7.5 -4.142,0 -7.5,-3.358 -7.5,-7.5 z"/><rect id="rect1334" width="52" height="52" x="497" y="380" fill="#d9d9d9" stroke="#000" stroke-miterlimit="8" stroke-width="2"/><rect id="rect1336" width="52" height="52" x="497" y="429" fill="#7f7f7f" stroke="#000" stroke-miterlimit="8" stroke-width="2"/><rect id="rect1338" width="52" height="52" x="497" y="481" fill="#d9d9d9" stroke="#000" stroke-miterlimit="8" stroke-width="2"/><path id="path1340" fill-rule="evenodd" d="m 515,404.5 c 0,-4.142 3.582,-7.5 8,-7.5 4.418,0 8,3.358 8,7.5 0,4.142 -3.582,7.5 -8,7.5 -4.418,0 -8,-3.358 -8,-7.5 z"/><path id="path1342" fill-rule="evenodd" d="m 515,456.5 c 0,-4.142 3.582,-7.5 8,-7.5 4.418,0 8,3.358 8,7.5 0,4.142 -3.582,7.5 -8,7.5 -4.418,0 -8,-3.358 -8,-7.5 z"/><path id="path1344" fill-rule="evenodd" d="m 515,507 c 0,-4.418 3.582,-8 8,-8 4.418,0 8,3.582 8,8 0,4.418 -3.582,8 -8,8 -4.418,0 -8,-3.582 -8,-8 z"/><path id="path1346" fill="none" fill-rule="evenodd" stroke="#000" stroke-miterlimit="8" d="M 0,0 46.5346,78.166" transform="matrix(-1,0,0,1,526.035,317.5)"/><path id="path1348" fill="none" fill-rule="evenodd" stroke="#000" stroke-miterlimit="8" d="M 0,0 46.5346,78.166" transform="matrix(-1,0,0,1,578.035,370.5)"/><path id="path1350" fill="none" fill-rule="evenodd" stroke="#000" stroke-miterlimit="8" d="m 476.5,515.5 51.853,78.774"/><path id="path1352" fill="none" fill-rule="evenodd" stroke="#000" stroke-miterlimit="8" d="M 0,0 46.5346,78.166" transform="matrix(-1,0,0,1,411.035,463.5)"/><text id="text1372" font-family="'Cambria Math', 'Cambria Math_MSFontService', sans-serif" font-size="36" font-weight="400" transform="translate(527.385,308)">𝑠<tspan id="tspan1354" x="15.17" y="7" font-size="26">𝑛</tspan><tspan id="tspan1356" x="58.448" y="52" font-size="36">𝑠</tspan><tspan id="tspan1358" x="73.618" y="60" font-size="26">𝑤</tspan><tspan id="tspan1360" x="4.111" y="308" font-size="36">𝑠</tspan><tspan id="tspan1362" x="19.281" y="315" font-size="26">𝑠</tspan><tspan id="tspan1364" x="-187.326" y="253" font-size="36">𝑠</tspan><tspan id="tspan1366" x="-172.156" y="261" font-size="26">𝑒</tspan><tspan id="tspan1368" x="-169.914" y="36" font-size="36">𝑠</tspan><tspan id="tspan1370" x="-154.744" y="43" font-size="26">𝑚</tspan></text><path id="path1374" fill="none" fill-rule="evenodd" stroke="#000" stroke-miterlimit="8" d="m 406.5,353.5 56.458,95.419"/><text id="text1384" font-family="'Cambria Math', 'Cambria Math_MSFontService', sans-serif" font-size="28" font-weight="400" transform="translate(648.911,399)">𝑤<tspan id="tspan1376" x="19.82" y="6" font-size="20">0</tspan><tspan id="tspan1378" x="40.51" y="0" font-size="28">=</tspan><tspan id="tspan1380" x="156.74" y="-21" font-size="28">−</tspan>𝑠<tspan id="tspan1382" x="189.51" y="-16" font-size="20">𝑚</tspan></text><path id="path1386" fill-rule="evenodd" d="m 935.659,396.712 c 2.662,0.702 4.706,2.217 6.132,4.546 1.427,2.329 2.14,5.138 2.14,8.429 0,3.299 -0.711,6.109 -2.133,8.428 -1.422,2.32 -3.468,3.831 -6.139,4.533 l -0.328,-1.053 c 2.106,-0.702 3.671,-2.087 4.696,-4.156 1.026,-2.069 1.539,-4.699 1.539,-7.889 0,-3.081 -0.511,-5.64 -1.532,-7.677 -1.021,-2.037 -2.602,-3.406 -4.744,-4.108 z m -206.726,0 0.369,1.053 c -2.133,0.702 -3.712,2.071 -4.737,4.108 -1.026,2.037 -1.538,4.596 -1.538,7.677 0,3.19 0.512,5.82 1.538,7.889 1.025,2.069 2.591,3.454 4.696,4.156 l -0.328,1.053 c -2.671,-0.702 -4.717,-2.213 -6.139,-4.533 -1.422,-2.319 -2.132,-5.129 -2.132,-8.428 0,-3.291 0.713,-6.1 2.139,-8.429 1.427,-2.329 3.471,-3.844 6.132,-4.546 z"/><text id="text1408" font-family="'Cambria Math', 'Cambria Math_MSFontService', sans-serif" font-size="28" font-weight="400" transform="translate(729.821,418)">𝑠<tspan id="tspan1388" x="11.77" y="5" font-size="20">𝑛</tspan><tspan id="tspan1390" x="32.75" y="0" font-size="28">+</tspan><tspan id="tspan1392" x="59.97" y="0" font-size="28">𝑠</tspan><tspan id="tspan1394" x="71.74" y="5" font-size="20">𝑒</tspan><tspan id="tspan1396" x="90.74" y="0" font-size="28">+</tspan><tspan id="tspan1398" x="117.96" y="0" font-size="28">𝑠</tspan><tspan id="tspan1400" x="129.73" y="5" font-size="20">𝑠</tspan><tspan id="tspan1402" x="147.53" y="0" font-size="28">+</tspan><tspan id="tspan1404" x="174.75" y="0" font-size="28">𝑠</tspan><tspan id="tspan1406" x="186.52" y="5" font-size="20">𝑤</tspan></text><path id="path1410" fill-rule="evenodd" d="m 718.401,389.948 h 76 76 76 v 2 h -76 -76 -76 z"/><text id="text1424" font-family="'Cambria Math', 'Cambria Math_MSFontService', sans-serif" font-size="28" font-weight="400" transform="translate(624.76,507)">𝑤<tspan id="tspan1412" x="19.17" y="6" font-size="20">1</tspan><tspan id="tspan1414" x="39.86" y="0" font-size="28">=</tspan><tspan id="tspan1416" x="166.59" y="-21" font-size="28">1</tspan><tspan id="tspan1418" x="188.31" y="-21" font-size="28">−</tspan><tspan id="tspan1420" x="215.53" y="-21" font-size="28">𝑠</tspan><tspan id="tspan1422" x="227.3" y="-15" font-size="20">𝑚</tspan></text><path id="path1426" fill-rule="evenodd" d="m 910.859,505.127 c 2.661,0.701 4.705,2.217 6.131,4.546 1.427,2.328 2.14,5.138 2.14,8.428 0,3.3 -0.711,6.109 -2.133,8.429 -1.422,2.32 -3.468,3.83 -6.138,4.532 l -0.329,-1.053 c 2.106,-0.701 3.671,-2.087 4.697,-4.156 1.025,-2.069 1.538,-4.698 1.538,-7.888 0,-3.081 -0.511,-5.64 -1.531,-7.677 -1.021,-2.037 -2.603,-3.407 -4.745,-4.109 z m -206.727,0 0.369,1.052 c -2.132,0.702 -3.712,2.072 -4.737,4.109 -1.025,2.037 -1.538,4.596 -1.538,7.677 0,3.19 0.513,5.819 1.538,7.888 1.025,2.069 2.591,3.455 4.696,4.156 l -0.328,1.053 c -2.67,-0.702 -4.717,-2.212 -6.138,-4.532 -1.422,-2.32 -2.133,-5.129 -2.133,-8.429 0,-3.29 0.713,-6.1 2.139,-8.428 1.427,-2.329 3.471,-3.845 6.132,-4.546 z"/><text id="text1452" font-family="'Cambria Math', 'Cambria Math_MSFontService', sans-serif" font-size="28" font-weight="400" transform="translate(705.02,526)">𝑠<tspan id="tspan1428" x="11.77" y="6" font-size="20">𝑛</tspan><tspan id="tspan1430" x="32.75" y="0" font-size="28">+</tspan><tspan id="tspan1432" x="59.97" y="0" font-size="28">𝑠</tspan><tspan id="tspan1434" x="71.74" y="6" font-size="20">𝑒</tspan><tspan id="tspan1436" x="90.74" y="0" font-size="28">+</tspan><tspan id="tspan1438" x="117.96" y="0" font-size="28">𝑠</tspan><tspan id="tspan1440" x="129.73" y="6" font-size="20">𝑠</tspan><tspan id="tspan1442" x="147.53" y="0" font-size="28">+</tspan><tspan id="tspan1444" x="174.75" y="0" font-size="28">𝑠</tspan><tspan id="tspan1446" x="186.52" y="6" font-size="20">𝑤</tspan><tspan id="tspan1448" x="222.79" y="0" font-size="28">−</tspan><tspan id="tspan1450" x="250.01" y="0" font-size="28">4</tspan></text><path id="path1454" fill-rule="evenodd" d="m 693.02,498.363 h 69.25 69.25 69.25 69.25 v 2 h -69.25 -69.25 -69.25 -69.25 z"/></g></g></svg>