<svg xmlns="http://www.w3.org/2000/svg" xmlns:svg="http://www.w3.org/2000/svg" id="svg3815" width="472" height="208" version="1.1" viewBox="0 0 124.883 55.033"><defs id="defs3812"><clipPath id="clip0"><rect id="rect3819" width="472" height="208" x="1002" y="95"/></clipPath></defs><g id="layer1" transform="translate(247.51383,-56.174055)"><g id="g3956" clip-path="url(#clip0)" transform="matrix(0.26458333,0,0,0.26458333,-512.62633,31.038639)"><rect id="rect3824" width="52" height="52" x="1057" y="96" fill="#d9d9d9" stroke="#000" stroke-miterlimit="8" stroke-width="2"/><rect id="rect3826" width="52" height="52" x="1005" y="96" fill="#d9d9d9" stroke="#000" stroke-miterlimit="8" stroke-width="2"/><rect id="rect3828" width="52" height="51" x="1005" y="145" fill="#d9d9d9" stroke="#000" stroke-miterlimit="8" stroke-width="2"/><rect id="rect3830" width="52" height="52" x="1057" y="196" fill="#d9d9d9" stroke="#000" stroke-miterlimit="8" stroke-width="2"/><rect id="rect3832" width="52" height="52" x="1005" y="196" fill="#d9d9d9" stroke="#000" stroke-miterlimit="8" stroke-width="2"/><path id="path3834" fill-rule="evenodd" d="m 1023,120 c 0,-4.418 3.36,-8 7.5,-8 4.14,0 7.5,3.582 7.5,8 0,4.418 -3.36,8 -7.5,8 -4.14,0 -7.5,-3.582 -7.5,-8 z"/><path id="path3836" fill-rule="evenodd" d="m 1075,120 c 0,-4.418 3.36,-8 7.5,-8 4.14,0 7.5,3.582 7.5,8 0,4.418 -3.36,8 -7.5,8 -4.14,0 -7.5,-3.582 -7.5,-8 z"/><path id="path3838" fill-rule="evenodd" d="m 1075,222.5 c 0,-4.142 3.36,-7.5 7.5,-7.5 4.14,0 7.5,3.358 7.5,7.5 0,4.142 -3.36,7.5 -7.5,7.5 -4.14,0 -7.5,-3.358 -7.5,-7.5 z"/><path id="path3840" fill-rule="evenodd" d="m 1022,223 c 0,-4.418 3.58,-8 8,-8 4.42,0 8,3.582 8,8 0,4.418 -3.58,8 -8,8 -4.42,0 -8,-3.582 -8,-8 z"/><rect id="rect3842" width="52" height="52" x="1109" y="96" fill="#d9d9d9" stroke="#000" stroke-miterlimit="8" stroke-width="2"/><rect id="rect3844" width="52" height="51" x="1109" y="145" fill="#d9d9d9" stroke="#000" stroke-miterlimit="8" stroke-width="2"/><rect id="rect3846" width="52" height="52" x="1109" y="196" fill="#d9d9d9" stroke="#000" stroke-miterlimit="8" stroke-width="2"/><path id="path3848" fill-rule="evenodd" d="m 1127,120 c 0,-4.418 3.36,-8 7.5,-8 4.14,0 7.5,3.582 7.5,8 0,4.418 -3.36,8 -7.5,8 -4.14,0 -7.5,-3.582 -7.5,-8 z"/><path id="path3850" fill-rule="evenodd" d="m 1127,172 c 0,-4.418 3.58,-8 8,-8 4.42,0 8,3.582 8,8 0,4.418 -3.58,8 -8,8 -4.42,0 -8,-3.582 -8,-8 z"/><path id="path3852" fill-rule="evenodd" d="m 1127,222.5 c 0,-4.142 3.36,-7.5 7.5,-7.5 4.14,0 7.5,3.358 7.5,7.5 0,4.142 -3.36,7.5 -7.5,7.5 -4.14,0 -7.5,-3.358 -7.5,-7.5 z"/><rect id="rect3854" width="52" height="52" x="1161" y="96" fill="#d9d9d9" stroke="#000" stroke-miterlimit="8" stroke-width="2"/><rect id="rect3856" width="52" height="51" x="1161" y="145" fill="#d9d9d9" stroke="#000" stroke-miterlimit="8" stroke-width="2"/><rect id="rect3858" width="52" height="52" x="1161" y="196" fill="#d9d9d9" stroke="#000" stroke-miterlimit="8" stroke-width="2"/><path id="path3860" fill-rule="evenodd" d="m 1179,120 c 0,-4.418 3.36,-8 7.5,-8 4.14,0 7.5,3.582 7.5,8 0,4.418 -3.36,8 -7.5,8 -4.14,0 -7.5,-3.582 -7.5,-8 z"/><path id="path3862" fill-rule="evenodd" d="m 1179,172 c 0,-4.418 3.58,-8 8,-8 4.42,0 8,3.582 8,8 0,4.418 -3.58,8 -8,8 -4.42,0 -8,-3.582 -8,-8 z"/><path id="path3864" fill-rule="evenodd" d="m 1179,222.5 c 0,-4.142 3.36,-7.5 7.5,-7.5 4.14,0 7.5,3.358 7.5,7.5 0,4.142 -3.36,7.5 -7.5,7.5 -4.14,0 -7.5,-3.358 -7.5,-7.5 z"/><rect id="rect3866" width="52" height="52" x="1057" y="248" fill="#d9d9d9" stroke="#000" stroke-miterlimit="8" stroke-width="2"/><path id="path3868" fill-rule="evenodd" d="m 1075,272.5 c 0,-4.142 3.36,-7.5 7.5,-7.5 4.14,0 7.5,3.358 7.5,7.5 0,4.142 -3.36,7.5 -7.5,7.5 -4.14,0 -7.5,-3.358 -7.5,-7.5 z"/><rect id="rect3870" width="52" height="52" x="1109" y="248" fill="#d9d9d9" stroke="#000" stroke-miterlimit="8" stroke-width="2"/><path id="path3872" fill-rule="evenodd" d="m 1127,272.5 c 0,-4.142 3.36,-7.5 7.5,-7.5 4.14,0 7.5,3.358 7.5,7.5 0,4.142 -3.36,7.5 -7.5,7.5 -4.14,0 -7.5,-3.358 -7.5,-7.5 z"/><rect id="rect3874" width="52" height="52" x="1161" y="248" fill="#d9d9d9" stroke="#000" stroke-miterlimit="8" stroke-width="2"/><path id="path3876" fill-rule="evenodd" d="m 1179,272.5 c 0,-4.142 3.36,-7.5 7.5,-7.5 4.14,0 7.5,3.358 7.5,7.5 0,4.142 -3.36,7.5 -7.5,7.5 -4.14,0 -7.5,-3.358 -7.5,-7.5 z"/><rect id="rect3878" width="52" height="52" x="1317" y="96" fill="#d9d9d9" stroke="#000" stroke-miterlimit="8" stroke-width="2"/><rect id="rect3880" width="52" height="52" x="1265" y="96" fill="#d9d9d9" stroke="#000" stroke-miterlimit="8" stroke-width="2"/><rect id="rect3882" width="52" height="51" x="1317" y="145" fill="#d9d9d9" stroke="#000" stroke-miterlimit="8" stroke-width="2"/><rect id="rect3884" width="52" height="51" x="1265" y="145" fill="#d9d9d9" stroke="#000" stroke-miterlimit="8" stroke-width="2"/><rect id="rect3886" width="52" height="52" x="1317" y="196" fill="#d9d9d9" stroke="#000" stroke-miterlimit="8" stroke-width="2"/><rect id="rect3888" width="52" height="52" x="1265" y="196" fill="#d9d9d9" stroke="#000" stroke-miterlimit="8" stroke-width="2"/><path id="path3890" fill-rule="evenodd" d="m 1283,171 c 0,-4.418 3.36,-8 7.5,-8 4.14,0 7.5,3.582 7.5,8 0,4.418 -3.36,8 -7.5,8 -4.14,0 -7.5,-3.582 -7.5,-8 z"/><path id="path3892" fill-rule="evenodd" d="m 1283,120 c 0,-4.418 3.36,-8 7.5,-8 4.14,0 7.5,3.582 7.5,8 0,4.418 -3.36,8 -7.5,8 -4.14,0 -7.5,-3.582 -7.5,-8 z"/><path id="path3894" fill-rule="evenodd" d="m 1335,120 c 0,-4.418 3.36,-8 7.5,-8 4.14,0 7.5,3.582 7.5,8 0,4.418 -3.36,8 -7.5,8 -4.14,0 -7.5,-3.582 -7.5,-8 z"/><path id="path3896" fill-rule="evenodd" d="m 1335,172 c 0,-4.418 3.36,-8 7.5,-8 4.14,0 7.5,3.582 7.5,8 0,4.418 -3.36,8 -7.5,8 -4.14,0 -7.5,-3.582 -7.5,-8 z"/><path id="path3898" fill-rule="evenodd" d="m 1335,222.5 c 0,-4.142 3.36,-7.5 7.5,-7.5 4.14,0 7.5,3.358 7.5,7.5 0,4.142 -3.36,7.5 -7.5,7.5 -4.14,0 -7.5,-3.358 -7.5,-7.5 z"/><path id="path3900" fill-rule="evenodd" d="m 1282,223 c 0,-4.418 3.58,-8 8,-8 4.42,0 8,3.582 8,8 0,4.418 -3.58,8 -8,8 -4.42,0 -8,-3.582 -8,-8 z"/><rect id="rect3902" width="52" height="52" x="1369" y="96" fill="#d9d9d9" stroke="#000" stroke-miterlimit="8" stroke-width="2"/><rect id="rect3904" width="52" height="51" x="1369" y="145" fill="#d9d9d9" stroke="#000" stroke-miterlimit="8" stroke-width="2"/><rect id="rect3906" width="52" height="52" x="1369" y="196" fill="#d9d9d9" stroke="#000" stroke-miterlimit="8" stroke-width="2"/><path id="path3908" fill-rule="evenodd" d="m 1387,120 c 0,-4.418 3.36,-8 7.5,-8 4.14,0 7.5,3.582 7.5,8 0,4.418 -3.36,8 -7.5,8 -4.14,0 -7.5,-3.582 -7.5,-8 z"/><path id="path3910" fill-rule="evenodd" d="m 1387,172 c 0,-4.418 3.36,-8 7.5,-8 4.14,0 7.5,3.582 7.5,8 0,4.418 -3.36,8 -7.5,8 -4.14,0 -7.5,-3.582 -7.5,-8 z"/><path id="path3912" fill-rule="evenodd" d="m 1387,222.5 c 0,-4.142 3.36,-7.5 7.5,-7.5 4.14,0 7.5,3.358 7.5,7.5 0,4.142 -3.36,7.5 -7.5,7.5 -4.14,0 -7.5,-3.358 -7.5,-7.5 z"/><rect id="rect3914" width="52" height="52" x="1421" y="96" fill="#d9d9d9" stroke="#000" stroke-miterlimit="8" stroke-width="2"/><rect id="rect3916" width="52" height="51" x="1421" y="145" fill="#d9d9d9" stroke="#000" stroke-miterlimit="8" stroke-width="2"/><rect id="rect3918" width="52" height="52" x="1421" y="196" fill="#d9d9d9" stroke="#000" stroke-miterlimit="8" stroke-width="2"/><path id="path3920" fill-rule="evenodd" d="m 1439,120 c 0,-4.418 3.36,-8 7.5,-8 4.14,0 7.5,3.582 7.5,8 0,4.418 -3.36,8 -7.5,8 -4.14,0 -7.5,-3.582 -7.5,-8 z"/><path id="path3922" fill-rule="evenodd" d="m 1439,172 c 0,-4.418 3.36,-8 7.5,-8 4.14,0 7.5,3.582 7.5,8 0,4.418 -3.36,8 -7.5,8 -4.14,0 -7.5,-3.582 -7.5,-8 z"/><path id="path3924" fill-rule="evenodd" d="m 1439,222.5 c 0,-4.142 3.36,-7.5 7.5,-7.5 4.14,0 7.5,3.358 7.5,7.5 0,4.142 -3.36,7.5 -7.5,7.5 -4.14,0 -7.5,-3.358 -7.5,-7.5 z"/><rect id="rect3926" width="52" height="52" x="1265" y="248" fill="#d9d9d9" stroke="#000" stroke-miterlimit="8" stroke-width="2"/><path id="path3928" fill-rule="evenodd" d="m 1283,272.5 c 0,-4.142 3.36,-7.5 7.5,-7.5 4.14,0 7.5,3.358 7.5,7.5 0,4.142 -3.36,7.5 -7.5,7.5 -4.14,0 -7.5,-3.358 -7.5,-7.5 z"/><rect id="rect3930" width="52" height="52" x="1369" y="248" fill="#d9d9d9" stroke="#000" stroke-miterlimit="8" stroke-width="2"/><path id="path3932" fill-rule="evenodd" d="m 1387,272.5 c 0,-4.142 3.36,-7.5 7.5,-7.5 4.14,0 7.5,3.358 7.5,7.5 0,4.142 -3.36,7.5 -7.5,7.5 -4.14,0 -7.5,-3.358 -7.5,-7.5 z"/><rect id="rect3934" width="52" height="52" x="1421" y="248" fill="#d9d9d9" stroke="#000" stroke-miterlimit="8" stroke-width="2"/><path id="path3936" fill-rule="evenodd" d="m 1439,272.5 c 0,-4.142 3.36,-7.5 7.5,-7.5 4.14,0 7.5,3.358 7.5,7.5 0,4.142 -3.36,7.5 -7.5,7.5 -4.14,0 -7.5,-3.358 -7.5,-7.5 z"/><rect id="rect3938" width="52" height="51" x="1057" y="145" fill="#7f7f7f" stroke="#000" stroke-miterlimit="8" stroke-width="6"/><rect id="rect3940" width="52" height="52" x="1005" y="248" fill="#7f7f7f" stroke="#000" stroke-miterlimit="8" stroke-width="6"/><path id="path3942" fill-rule="evenodd" d="m 1023,171 c 0,-4.418 3.36,-8 7.5,-8 4.14,0 7.5,3.582 7.5,8 0,4.418 -3.36,8 -7.5,8 -4.14,0 -7.5,-3.582 -7.5,-8 z"/><path id="path3944" fill-rule="evenodd" d="m 1075,172 c 0,-4.418 3.58,-8 8,-8 4.42,0 8,3.582 8,8 0,4.418 -3.58,8 -8,8 -4.42,0 -8,-3.582 -8,-8 z"/><path id="path3946" fill-rule="evenodd" d="m 1023,272.5 c 0,-4.142 3.36,-7.5 7.5,-7.5 4.14,0 7.5,3.358 7.5,7.5 0,4.142 -3.36,7.5 -7.5,7.5 -4.14,0 -7.5,-3.358 -7.5,-7.5 z"/><rect id="rect3948" width="52" height="52" x="1317" y="248" fill="#7f7f7f" stroke="#000" stroke-miterlimit="8" stroke-width="6"/><path id="path3950" fill-rule="evenodd" d="m 1335,272.5 c 0,-4.142 3.36,-7.5 7.5,-7.5 4.14,0 7.5,3.358 7.5,7.5 0,4.142 -3.36,7.5 -7.5,7.5 -4.14,0 -7.5,-3.358 -7.5,-7.5 z"/><path id="path3952" d="m 1076.01,171.09 256.5,93.074 -1.02,2.82 -256.5,-93.074 z m 256.15,88.162 5.48,8.369 -9.57,2.911 z"/><path id="path3954" d="m 1023.5,272 h 305.94 v 3 H 1023.5 Z m 303.94,-4.5 8,6 -8,6 z"/></g></g></svg>