<svg xmlns="http://www.w3.org/2000/svg" xmlns:svg="http://www.w3.org/2000/svg" id="svg1944" width="1658" height="862" version="1.1" viewBox="0 0 438.679 228.071"><defs id="defs1941"><clipPath id="clip0"><rect id="rect1948" width="1658" height="870" x="167" y="101"/></clipPath></defs><g id="layer1" transform="translate(473.13339,127.98387)"><g id="g2159" clip-path="url(#clip0)" transform="matrix(0.26458333,0,0,0.26458333,-517.31881,-154.70679)"><rect id="rect1953" width="16" height="19" x="300" y="479"/><path id="path1955" d="m 0,-3 h 159.594 v 61.457 h -6 V 0 l 3,3 H 0 Z m 165.594,58.457 -9,18 -9,-18 z" transform="matrix(1,0,0,-1,316,444.457)"/><rect id="rect1957" width="16" height="18" x="300" y="435"/><rect id="rect1959" width="21" height="20" x="892" y="560" fill="#4472c4" stroke="#2f528f" stroke-miterlimit="8" stroke-width="2"/><rect id="rect1961" width="21" height="21" x="776" y="560" fill="#4472c4" stroke="#2f528f" stroke-miterlimit="8" stroke-width="2"/><rect id="rect1963" width="20" height="20" x="967" y="611" fill="#4472c4" stroke="#2f528f" stroke-miterlimit="8" stroke-width="2"/><rect id="rect1965" width="20" height="20" x="1075" y="611" fill="#4472c4" stroke="#2f528f" stroke-miterlimit="8" stroke-width="2"/><rect id="rect1967" width="20" height="21" x="965" y="560" fill="#4472c4" stroke="#2f528f" stroke-miterlimit="8" stroke-width="2"/><rect id="rect1969" width="20" height="20" x="1074" y="560" fill="#4472c4" stroke="#2f528f" stroke-miterlimit="8" stroke-width="2"/><rect id="rect1971" width="16" height="18" x="787" y="560"/><rect id="rect1973" width="61" height="31" x="1495" y="835" stroke="#000" stroke-miterlimit="8" stroke-width="2"/><text id="text1975" fill="#fff" font-family="Calibri, Calibri_MSFontService, sans-serif" font-size="16" font-weight="400" transform="translate(1511.06,856)">Pass</text><rect id="rect1977" width="61" height="31" x="1567" y="835" fill="#fff" stroke="#000" stroke-miterlimit="8" stroke-width="2"/><text id="text1979" font-family="Calibri, Calibri_MSFontService, sans-serif" font-size="12" font-weight="400" transform="translate(1582.31,854)">Buffer</text><rect id="rect1981" width="148" height="72" x="399" y="299" stroke="#000" stroke-miterlimit="8" stroke-width="2"/><text id="text1987" fill="#fff" font-family="Calibri, Calibri_MSFontService, sans-serif" font-size="20" font-weight="400" transform="translate(440.758,318)">Shading <tspan id="tspan1983" x="2.87" y="24" font-size="20">change</tspan><tspan id="tspan1985" x="-6.88" y="48" font-size="20">detection</tspan></text><rect id="rect1989" width="147" height="71" x="771" y="560" stroke="#000" stroke-miterlimit="8" stroke-width="2"/><text id="text1991" fill="#fff" font-family="Calibri, Calibri_MSFontService, sans-serif" font-size="20" font-weight="400" transform="translate(790.107,603)">Update Locks</text><rect id="rect1993" width="147" height="72" x="168" y="430" fill="#fff" stroke="#000" stroke-miterlimit="8" stroke-width="2"/><text id="text1995" font-family="Calibri, Calibri_MSFontService, sans-serif" font-size="20" font-weight="400" transform="translate(196.474,473)">Lock status</text><rect id="rect1997" width="147" height="71" x="168" y="807" fill="#fff" stroke="#000" stroke-miterlimit="8" stroke-width="2"/><text id="text2001" font-family="Calibri, Calibri_MSFontService, sans-serif" font-size="20" font-weight="400" transform="translate(191.349,838)">Disocclusion <tspan id="tspan1999" x="29" y="24" font-size="20">mask</tspan></text><path id="path2003" d="m 0,-3 h 532.183 v 199.427 h -6 V 0 l 3,3 H 0 Z m 538.183,196.427 -9,18 -9,-18 z" transform="matrix(1,0,0,-1,315,842.427)"/><rect id="rect2005" width="148" height="71" x="956" y="560" stroke="#000" stroke-miterlimit="8" stroke-width="2"/><text id="text2007" fill="#fff" font-family="Calibri, Calibri_MSFontService, sans-serif" font-size="20" font-weight="400" transform="translate(979.694,603)">Rectify color</text><path id="path2009" d="m 0,-3 h 772.861 v 199.801 h -6 V 0 l 3,3 H 0 Z m 778.861,196.801 -9,18 -9,-18 z" transform="matrix(1,0,0,-1,315,842.801)"/><rect id="rect2011" width="147" height="72" x="1318" y="560" stroke="#000" stroke-miterlimit="8" stroke-width="2"/><text id="text2013" fill="#fff" font-family="Calibri, Calibri_MSFontService, sans-serif" font-size="20" font-weight="400" transform="translate(1343.48,603)">Accumulate</text><rect id="rect2015" width="147" height="71" x="1318" y="429" stroke="#000" stroke-miterlimit="8" stroke-width="2"/><text id="text2017" fill="#fff" font-family="Calibri, Calibri_MSFontService, sans-serif" font-size="20" font-weight="400" transform="translate(1353.23,472)">Tonemap</text><rect id="rect2019" width="148" height="71" x="1134" y="560" stroke="#000" stroke-miterlimit="8" stroke-width="2"/><text id="text2021" fill="#fff" font-family="Calibri, Calibri_MSFontService, sans-serif" font-size="20" font-weight="400" transform="translate(1169.49,603)">Tonemap</text><rect id="rect2023" width="146" height="72" x="1498" y="560" stroke="#000" stroke-miterlimit="8" stroke-width="2"/><text id="text2027" fill="#fff" font-family="Calibri, Calibri_MSFontService, sans-serif" font-size="20" font-weight="400" transform="translate(1541.26,591)">Inverse <tspan id="tspan2025" x="-7.25" y="24" font-size="20">tonemap</tspan></text><path id="path2029" d="m 918,593 h 23.061 v 6 H 918 Z m 20.061,-6 18,9 -18,9 z"/><path id="path2031" d="m 1104,593 h 15.02 v 6 H 1104 Z m 12.02,-6 18,9 -18,9 z"/><path id="path2033" d="M 1.44131e-5,-3 17.7786,-2.99991 v 6 L -1.44131e-5,3 Z M 14.7786,-8.99993 32.7786,1.5748e-4 14.7785,9.00007 Z" transform="matrix(1,0,0,-1,1465,596)"/><path id="path2035" d="m 1282.04,593 21.09,0.259 -0.08,6 -21.09,-0.259 z m 18.16,-5.777 17.89,9.22 -18.11,8.778 z"/><path id="path2037" d="m 1395,500 v 44.932 h -6 V 500 Z m 6,41.932 -9,18 -9,-18 z"/><rect id="rect2039" width="148" height="72" x="1006" y="195" stroke="#000" stroke-miterlimit="8" stroke-width="2"/><text id="text2041" fill="#fff" font-family="Calibri, Calibri_MSFontService, sans-serif" font-size="20" font-weight="400" transform="translate(1039.53,238)">Upsample</text><rect id="rect2043" width="147" height="71" x="169" y="254" fill="#fff" stroke="#000" stroke-miterlimit="8" stroke-width="2"/><text id="text2045" font-family="Calibri, Calibri_MSFontService, sans-serif" font-size="20" font-weight="400" transform="translate(189.971,296)">Luma history</text><rect id="rect2047" width="147" height="72" x="168" y="342" fill="#fff" stroke="#000" stroke-miterlimit="8" stroke-width="2"/><text id="text2051" font-family="Calibri, Calibri_MSFontService, sans-serif" font-size="20" font-weight="400" transform="translate(210.224,373)">Current <tspan id="tspan2049" x="-11" y="24" font-size="20">luminance</tspan></text><rect id="rect2053" width="147" height="72" x="168" y="102" fill="#fff" stroke="#000" stroke-miterlimit="8" stroke-width="2"/><text id="text2057" font-family="Calibri, Calibri_MSFontService, sans-serif" font-size="20" font-weight="400" transform="translate(182.599,145)">Adjusted <tspan id="tspan2055" x="76.75" y="0" font-size="20">color</tspan></text><path id="path2059" d="m 316,286 h 44.378 v 48.587 l -3,-3 h 26.377 v 6 H 354.378 V 289 l 3,3 H 316 Z m 64.755,39.587 18,9 -18,9 z"/><path id="path2061" d="m 0,-3 h 44.8764 v 45.9532 l -3,-3 h 26.8764 v 6 H 38.8764 V 0 l 3,3 H 0 Z m 65.7528,36.9532 18,9 -18,9 z" transform="matrix(1,0,0,-1,315,377.953)"/><rect id="rect2063" width="147" height="72" x="168" y="685" fill="#fff" stroke="#000" stroke-miterlimit="8" stroke-width="2"/><text id="text2065" font-family="Calibri, Calibri_MSFontService, sans-serif" font-size="20" font-weight="400" transform="translate(185.099,728)">Output buffer</text><path id="path2067" d="m 1154,228 h 240.51 v 186.13 h -6 V 231 l 3,3 H 1154 Z m 246.51,183.13 -9,18 -9,-18 z"/><rect id="rect2069" width="147" height="71" x="168" y="891" fill="#fff" stroke="#000" stroke-miterlimit="8" stroke-width="2"/><text id="text2071" font-family="Calibri, Calibri_MSFontService, sans-serif" font-size="20" font-weight="400" transform="translate(183.599,934)">Reactive mask</text><path id="path2073" d="m 0,-3 h 1079.31 v 282.927 h -6 V 0 l 3,3 H 0 Z m 1085.31,279.927 -9,18 -9,-18 z" transform="matrix(1,0,0,-1,315,926.927)"/><rect id="rect2075" width="147" height="71" x="168" y="559" fill="#fff" stroke="#000" stroke-miterlimit="8" stroke-width="2"/><text id="text2081" font-family="Calibri, Calibri_MSFontService, sans-serif" font-size="20" font-weight="400" transform="translate(212.474,578)">Dilated <tspan id="tspan2077" x="-.37" y="24" font-size="20">motion</tspan><tspan id="tspan2079" x="-.75" y="48" font-size="20">vectors</tspan></text><rect id="rect2083" width="148" height="72" x="399" y="559" stroke="#000" stroke-miterlimit="8" stroke-width="2"/><text id="text2085" fill="#fff" font-family="Calibri, Calibri_MSFontService, sans-serif" font-size="20" font-weight="400" transform="translate(433.503,602)">Reproject</text><path id="path2087" d="M 470,299.432 V 228 h 521.572 v 6 H 473 l 3,-3 v 68.432 z M 988.572,222 l 17.998,9 -17.998,9 z"/><path id="path2089" d="m 547,332 h 358.9 v 212.638 h -6 V 335 l 3,3 H 547 Z m 364.9,209.638 -9,18 -9,-18 z"/><path id="path2091" d="m 315,135 h 767.98 v 45.19 h -6 V 138 l 3,3 H 315 Z m 773.98,42.19 -9,18 -9,-18 z"/><rect id="rect2093" width="147" height="72" x="581" y="559" fill="#fff" stroke="#000" stroke-miterlimit="8" stroke-width="2"/><text id="text2097" font-family="Calibri, Calibri_MSFontService, sans-serif" font-size="20" font-weight="400" transform="translate(604.788,590)">Reprojected <tspan id="tspan2095" x="6.62" y="24" font-size="20">lock status</tspan></text><rect id="rect2099" width="148" height="72" x="1676" y="560" fill="#fff" stroke="#000" stroke-miterlimit="8" stroke-width="2"/><text id="text2101" font-family="Calibri, Calibri_MSFontService, sans-serif" font-size="20" font-weight="400" transform="translate(1721.04,603)">Output</text><path id="path2103" d="M 1.44131e-5,-3 17.7786,-2.99991 v 6 L -1.44131e-5,3 Z M 14.7786,-8.99993 32.7786,1.5748e-4 14.7785,9.00007 Z" transform="matrix(1,0,0,-1,1644,596)"/><text id="text2105" font-family="Calibri, Calibri_MSFontService, sans-serif" font-size="20" font-weight="400" transform="translate(326.589,130)">5x5 Lanczos</text><path id="path2107" d="m 547,332 h 431.611 v 213.338 h -6 V 335 l 3,3 H 547 Z m 437.611,210.338 -9,18 -9,-18 z"/><text id="text2109" font-family="Calibri, Calibri_MSFontService, sans-serif" font-size="20" font-weight="400" transform="translate(487.278,413)">Y (Luminance)</text><path id="path2111" d="m 547,592 h 18.884 v 6 H 547 Z m 15.884,-6 18,9 -18,9 z"/><text id="text2117" font-family="Calibri, Calibri_MSFontService, sans-serif" font-size="20" font-weight="400" transform="translate(484.471,284)">1<tspan id="tspan2113" x="75.35" y="30" font-size="20">1</tspan><tspan id="tspan2115" x="610.205" y="12" font-size="20">Clamping box</tspan></text><path id="path2119" d="m 0,-3 h 44.8764 v 128.778 l -3,-3 h 26.8764 v 6 H 38.8764 V 0 l 3,3 H 0 Z m 65.7528,119.778 18,9 -18,9 z" transform="matrix(1,0,0,-1,315,720.778)"/><text id="text2125" font-family="Calibri, Calibri_MSFontService, sans-serif" font-size="20" font-weight="400" transform="translate(330.697,870)">2x2<tspan id="tspan2121" x="33.75" y="0" font-size="20">bilinea</tspan><tspan id="tspan2123" x="87.75" y="0" font-size="20">r</tspan></text><path id="path2127" d="m 316,485 h 159.594 v 58.919 h -6 V 488 l 3,3 H 316 Z m 165.594,55.919 -9,18 -9,-18 z"/><text id="text2137" font-family="Calibri, Calibri_MSFontService, sans-serif" font-size="20" font-weight="400" transform="translate(320.814,473)">2x2<tspan id="tspan2129" x="33.75" y="0" font-size="20">bilinea</tspan>r<tspan id="tspan2131" x="5.41" y="111" font-size="20">1</tspan><tspan id="tspan2133" x="4.481" y="275" font-size="20">5x5 Lanczos</tspan><tspan id="tspan2135" x="417.243" y="114" font-size="20">1</tspan></text><path id="path2139" d="M 0,-3 H 18 V 3 H 0 Z m 24,0 h 15.6321 v 8.36787 h -6 V 0 l 3,3 H 24 Z m 15.6321,14.3679 v 18 h -6 v -18 z m 0,24 v 18 h -6 v -18 z m 0,24 v 18 h -6 v -18 z m 0,24 v 18.0001 h -6 V 83.3679 Z m 0,24.0001 v 18 h -6 v -18 z m 0,24 v 18 h -6 v -18 z m 0,24 v 18 h -6 v -18 z m 0,24 v 18 h -6 v -18 z m 0,24 v 18 h -6 v -18 z m 0,24 v 18 h -6 v -18 z m 0,24 v 18 h -6 v -18 z m 0,24 v 18 h -6 v -18 z m 0,24 v 18 h -6 v -18 z m 0,24 v 18 h -6 v -18 z m 0,24 v 18 h -6 v -18 z m 0,24 v 18 h -6 v -18 z m 0,24 v 18 h -6 v -18 z m 0,24 v 18 h -6 v -18 z m 0,24 v 18 h -6 v -18 z m 0,24 v 18 h -6 v -18 z m 0,24 v 15.495 h -8.5049 v -6 h 5.5049 l -3,3 v -12.495 z m -14.5049,15.495 h -9.4951 v -6 h 9.4951 z m -6.4951,6 -17.999974,-9 17.999974,-9 z" transform="matrix(0,1,1,0,473,631)"/><text id="text2149" font-family="Calibri, Calibri_MSFontService, sans-serif" font-size="20" font-weight="400" transform="translate(328.288,280)">2x2<tspan id="tspan2141" x="33.75" y="0" font-size="20">bilinea</tspan>r<tspan id="tspan2143" x="1.156" y="128" font-size="20">2x2 bilinear</tspan><tspan id="tspan2145" x="-.508" y="674" font-size="20">2x2</tspan><tspan id="tspan2147" x="33.242" y="674" font-size="20">bilinea</tspan>r</text><path id="path2151" d="m 728.039,592 27.418,0.353 -0.077,6 L 727.961,598 Z m 24.496,-5.685 17.882,9.231 -18.114,8.767 z"/><path id="path2153" d="m 1083,266.965 3.28,278.31 -6,0.071 -3.28,-278.311 z m 9.25,275.24 -8.79,18.104 -9.21,-17.892 z"/><path id="path2155" d="m 315.011,592 68.753,0.258 -0.022,6 L 314.989,598 Z m 65.776,-5.754 17.966,9.068 -18.034,8.932 z"/><path id="path2157" d="m 0,-3 h 40.0282 v 138.078 h -24 v -6 h 21 l -3,3 V 0 l 3,3 H 0 Z m 19.0282,144.078 -18.00001,-9 18.00001,-9 z" transform="matrix(0,-1,-1,0,786.078,560.028)"/></g></g></svg>