<svg xmlns="http://www.w3.org/2000/svg" xmlns:svg="http://www.w3.org/2000/svg" id="svg317" width="1118.598" height="328.258" version="1.1" viewBox="0 0 295.962 86.852"><defs id="defs314"><clipPath id="clip0"><rect id="rect321" width="1133" height="344" x="152" y="465"/></clipPath><clipPath id="clip1"><rect id="rect324" width="427" height="320" x="857" y="464"/></clipPath><clipPath id="clip2"><rect id="rect327" width="427" height="320" x="857" y="464"/></clipPath><clipPath id="clip3"><rect id="rect330" width="427" height="320" x="857" y="464"/></clipPath><clipPath id="clip4"><rect id="rect333" width="427" height="320" x="857" y="464"/></clipPath><clipPath id="clip5"><rect id="rect336" width="427" height="320" x="857" y="464"/></clipPath><clipPath id="clip6"><rect id="rect339" width="329" height="257" x="895" y="486"/></clipPath><clipPath id="clip7"><rect id="rect342" width="427" height="320" x="857" y="464"/></clipPath><clipPath id="clip8"><rect id="rect345" width="427" height="320" x="857" y="464"/></clipPath><clipPath id="clip9"><rect id="rect348" width="427" height="320" x="857" y="464"/></clipPath><clipPath id="clip10"><rect id="rect351" width="427" height="320" x="857" y="464"/></clipPath><clipPath id="clip11"><rect id="rect354" width="427" height="320" x="857" y="464"/></clipPath><clipPath id="clip12"><rect id="rect357" width="427" height="320" x="857" y="464"/></clipPath><clipPath id="clip13"><rect id="rect360" width="427" height="320" x="857" y="464"/></clipPath><clipPath id="clip14"><rect id="rect363" width="427" height="320" x="857" y="464"/></clipPath><clipPath id="clip15"><rect id="rect366" width="427" height="320" x="857" y="464"/></clipPath><clipPath id="clip16"><rect id="rect369" width="427" height="320" x="857" y="464"/></clipPath><clipPath id="clip17"><rect id="rect372" width="427" height="320" x="857" y="464"/></clipPath><clipPath id="clip18"><rect id="rect375" width="427" height="320" x="857" y="464"/></clipPath><clipPath id="clip19"><rect id="rect378" width="427" height="320" x="857" y="464"/></clipPath><clipPath id="clip20"><rect id="rect381" width="427" height="320" x="857" y="464"/></clipPath><clipPath id="clip21"><rect id="rect384" width="427" height="320" x="857" y="464"/></clipPath><clipPath id="clip22"><rect id="rect387" width="427" height="320" x="857" y="464"/></clipPath></defs><g id="layer1" transform="translate(64.630694,-80.409279)"><g id="g592" clip-path="url(#clip0)" transform="matrix(0.26458333,0,0,0.26458333,-104.84736,-46.78709)"><rect id="rect392" width="416" height="279" x="153" y="529" fill="#f2f2f2" stroke="#000" stroke-miterlimit="8" stroke-width="2"/><path id="path394" fill="#595959" fill-opacity=".49" fill-rule="evenodd" stroke="#000" stroke-miterlimit="8" stroke-width="2" d="M 631,743 273,629.295 v -28.59 L 631,487 Z"/><rect id="rect396" width="31" height="32" x="242" y="599" fill="#d9d9d9" stroke="#000" stroke-miterlimit="8" stroke-width="2"/><rect id="rect398" width="52" height="51" x="672" y="487" fill="#d9d9d9" stroke="#000" stroke-miterlimit="8" stroke-width="2"/><rect id="rect400" width="52" height="51" x="620" y="487" fill="#d9d9d9" stroke="#000" stroke-miterlimit="8" stroke-width="2"/><rect id="rect402" width="52" height="52" x="672" y="535" fill="#d9d9d9" stroke="#000" stroke-miterlimit="8" stroke-width="2"/><rect id="rect404" width="52" height="52" x="620" y="535" fill="#d9d9d9" stroke="#000" stroke-miterlimit="8" stroke-width="2"/><rect id="rect406" width="52" height="52" x="672" y="587" fill="#d9d9d9" stroke="#000" stroke-miterlimit="8" stroke-width="2"/><rect id="rect408" width="52" height="52" x="620" y="587" fill="#d9d9d9" stroke="#000" stroke-miterlimit="8" stroke-width="2"/><rect id="rect410" width="52" height="51" x="724" y="487" fill="#d9d9d9" stroke="#000" stroke-miterlimit="8" stroke-width="2"/><rect id="rect412" width="52" height="52" x="724" y="535" fill="#d9d9d9" stroke="#000" stroke-miterlimit="8" stroke-width="2"/><rect id="rect414" width="52" height="52" x="724" y="587" fill="#d9d9d9" stroke="#000" stroke-miterlimit="8" stroke-width="2"/><path id="path416" fill-rule="evenodd" d="m 743,613.5 c 0,-4.142 3.582,-7.5 8,-7.5 4.418,0 8,3.358 8,7.5 0,4.142 -3.582,7.5 -8,7.5 -4.418,0 -8,-3.358 -8,-7.5 z"/><rect id="rect418" width="52" height="51" x="776" y="487" fill="#d9d9d9" stroke="#000" stroke-miterlimit="8" stroke-width="2"/><rect id="rect420" width="52" height="52" x="776" y="535" fill="#d9d9d9" stroke="#000" stroke-miterlimit="8" stroke-width="2"/><rect id="rect422" width="52" height="52" x="776" y="587" fill="#d9d9d9" stroke="#000" stroke-miterlimit="8" stroke-width="2"/><rect id="rect424" width="52" height="52" x="620" y="639" fill="#d9d9d9" stroke="#000" stroke-miterlimit="8" stroke-width="2"/><rect id="rect426" width="52" height="52" x="724" y="639" fill="#d9d9d9" stroke="#000" stroke-miterlimit="8" stroke-width="2"/><rect id="rect428" width="52" height="52" x="776" y="639" fill="#d9d9d9" stroke="#000" stroke-miterlimit="8" stroke-width="2"/><rect id="rect430" width="52" height="52" x="672" y="639" fill="#d9d9d9" stroke="#000" stroke-miterlimit="8" stroke-width="2"/><rect id="rect432" width="52" height="51" x="828" y="487" fill="#d9d9d9" stroke="#000" stroke-miterlimit="8" stroke-width="2"/><rect id="rect434" width="52" height="52" x="828" y="535" fill="#d9d9d9" stroke="#000" stroke-miterlimit="8" stroke-width="2"/><rect id="rect436" width="52" height="52" x="828" y="587" fill="#d9d9d9" stroke="#000" stroke-miterlimit="8" stroke-width="2"/><rect id="rect438" width="52" height="52" x="828" y="639" fill="#d9d9d9" stroke="#000" stroke-miterlimit="8" stroke-width="2"/><rect id="rect440" width="52" height="52" x="672" y="691" fill="#d9d9d9" stroke="#000" stroke-miterlimit="8" stroke-width="2"/><rect id="rect442" width="52" height="52" x="620" y="691" fill="#d9d9d9" stroke="#000" stroke-miterlimit="8" stroke-width="2"/><rect id="rect444" width="52" height="52" x="724" y="691" fill="#d9d9d9" stroke="#000" stroke-miterlimit="8" stroke-width="2"/><rect id="rect446" width="52" height="52" x="776" y="691" fill="#d9d9d9" stroke="#000" stroke-miterlimit="8" stroke-width="2"/><rect id="rect448" width="52" height="52" x="828" y="691" fill="#d9d9d9" stroke="#000" stroke-miterlimit="8" stroke-width="2"/><path id="path450" fill-rule="evenodd" d="m 249,615 c 0,-4.418 3.582,-8 8,-8 4.418,0 8,3.582 8,8 0,4.418 -3.582,8 -8,8 -4.418,0 -8,-3.582 -8,-8 z"/><path id="path452" fill="#bfbfbf" fill-rule="evenodd" d="m 743,664 c 0,-4.418 3.582,-8 8,-8 4.418,0 8,3.582 8,8 0,4.418 -3.582,8 -8,8 -4.418,0 -8,-3.582 -8,-8 z"/><path id="path454" fill="#bfbfbf" fill-rule="evenodd" d="m 743,717.5 c 0,-4.142 3.582,-7.5 8,-7.5 4.418,0 8,3.358 8,7.5 0,4.142 -3.582,7.5 -8,7.5 -4.418,0 -8,-3.358 -8,-7.5 z"/><path id="path456" fill="#bfbfbf" fill-rule="evenodd" d="m 742,561 c 0,-4.418 3.582,-8 8,-8 4.418,0 8,3.582 8,8 0,4.418 -3.582,8 -8,8 -4.418,0 -8,-3.582 -8,-8 z"/><path id="path458" fill="#bfbfbf" fill-rule="evenodd" d="m 742,510 c 0,-4.418 3.358,-8 7.5,-8 4.142,0 7.5,3.582 7.5,8 0,4.418 -3.358,8 -7.5,8 -4.142,0 -7.5,-3.582 -7.5,-8 z"/><path id="path460" fill="#bfbfbf" fill-rule="evenodd" d="m 795,613.5 c 0,-4.142 3.582,-7.5 8,-7.5 4.418,0 8,3.358 8,7.5 0,4.142 -3.582,7.5 -8,7.5 -4.418,0 -8,-3.358 -8,-7.5 z"/><path id="path462" fill="#bfbfbf" fill-rule="evenodd" d="m 796,664 c 0,-4.418 3.358,-8 7.5,-8 4.142,0 7.5,3.582 7.5,8 0,4.418 -3.358,8 -7.5,8 -4.142,0 -7.5,-3.582 -7.5,-8 z"/><path id="path464" fill="#bfbfbf" fill-rule="evenodd" d="m 795,717.5 c 0,-4.142 3.582,-7.5 8,-7.5 4.418,0 8,3.358 8,7.5 0,4.142 -3.582,7.5 -8,7.5 -4.418,0 -8,-3.358 -8,-7.5 z"/><path id="path466" fill="#bfbfbf" fill-rule="evenodd" d="m 795,561 c 0,-4.418 3.358,-8 7.5,-8 4.142,0 7.5,3.582 7.5,8 0,4.418 -3.358,8 -7.5,8 -4.142,0 -7.5,-3.582 -7.5,-8 z"/><path id="path468" fill="#bfbfbf" fill-rule="evenodd" d="m 794,510 c 0,-4.418 3.582,-8 8,-8 4.418,0 8,3.582 8,8 0,4.418 -3.582,8 -8,8 -4.418,0 -8,-3.582 -8,-8 z"/><path id="path470" fill="#bfbfbf" fill-rule="evenodd" d="m 845,613.5 c 0,-4.142 3.582,-7.5 8,-7.5 4.418,0 8,3.358 8,7.5 0,4.142 -3.582,7.5 -8,7.5 -4.418,0 -8,-3.358 -8,-7.5 z"/><path id="path472" fill="#bfbfbf" fill-rule="evenodd" d="m 846,664 c 0,-4.418 3.358,-8 7.5,-8 4.142,0 7.5,3.582 7.5,8 0,4.418 -3.358,8 -7.5,8 -4.142,0 -7.5,-3.582 -7.5,-8 z"/><path id="path474" fill="#bfbfbf" fill-rule="evenodd" d="m 845,717.5 c 0,-4.142 3.582,-7.5 8,-7.5 4.418,0 8,3.358 8,7.5 0,4.142 -3.582,7.5 -8,7.5 -4.418,0 -8,-3.358 -8,-7.5 z"/><path id="path476" fill="#bfbfbf" fill-rule="evenodd" d="m 845,561 c 0,-4.418 3.358,-8 7.5,-8 4.142,0 7.5,3.582 7.5,8 0,4.418 -3.358,8 -7.5,8 -4.142,0 -7.5,-3.582 -7.5,-8 z"/><path id="path478" fill="#bfbfbf" fill-rule="evenodd" d="m 844,510 c 0,-4.418 3.582,-8 8,-8 4.418,0 8,3.582 8,8 0,4.418 -3.582,8 -8,8 -4.418,0 -8,-3.582 -8,-8 z"/><path id="path480" fill="#bfbfbf" fill-rule="evenodd" d="m 690,613.5 c 0,-4.142 3.582,-7.5 8,-7.5 4.418,0 8,3.358 8,7.5 0,4.142 -3.582,7.5 -8,7.5 -4.418,0 -8,-3.358 -8,-7.5 z"/><path id="path482" fill="#bfbfbf" fill-rule="evenodd" d="m 691,664 c 0,-4.418 3.358,-8 7.5,-8 4.142,0 7.5,3.582 7.5,8 0,4.418 -3.358,8 -7.5,8 -4.142,0 -7.5,-3.582 -7.5,-8 z"/><path id="path484" fill="#bfbfbf" fill-rule="evenodd" d="m 690,717.5 c 0,-4.142 3.582,-7.5 8,-7.5 4.418,0 8,3.358 8,7.5 0,4.142 -3.582,7.5 -8,7.5 -4.418,0 -8,-3.358 -8,-7.5 z"/><path id="path486" fill="#bfbfbf" fill-rule="evenodd" d="m 690,561 c 0,-4.418 3.358,-8 7.5,-8 4.142,0 7.5,3.582 7.5,8 0,4.418 -3.358,8 -7.5,8 -4.142,0 -7.5,-3.582 -7.5,-8 z"/><path id="path488" fill="#bfbfbf" fill-rule="evenodd" d="m 689,510 c 0,-4.418 3.582,-8 8,-8 4.418,0 8,3.582 8,8 0,4.418 -3.582,8 -8,8 -4.418,0 -8,-3.582 -8,-8 z"/><path id="path490" fill="#bfbfbf" fill-rule="evenodd" d="m 640,613.5 c 0,-4.142 3.582,-7.5 8,-7.5 4.418,0 8,3.358 8,7.5 0,4.142 -3.582,7.5 -8,7.5 -4.418,0 -8,-3.358 -8,-7.5 z"/><path id="path492" fill="#bfbfbf" fill-rule="evenodd" d="m 640,664 c 0,-4.418 3.582,-8 8,-8 4.418,0 8,3.582 8,8 0,4.418 -3.582,8 -8,8 -4.418,0 -8,-3.582 -8,-8 z"/><path id="path494" fill="#bfbfbf" fill-rule="evenodd" d="m 640,717.5 c 0,-4.142 3.582,-7.5 8,-7.5 4.418,0 8,3.358 8,7.5 0,4.142 -3.582,7.5 -8,7.5 -4.418,0 -8,-3.358 -8,-7.5 z"/><path id="path496" fill="#bfbfbf" fill-rule="evenodd" d="m 639,561 c 0,-4.418 3.582,-8 8,-8 4.418,0 8,3.582 8,8 0,4.418 -3.582,8 -8,8 -4.418,0 -8,-3.582 -8,-8 z"/><path id="path498" fill="#bfbfbf" fill-rule="evenodd" d="m 639,510 c 0,-4.418 3.358,-8 7.5,-8 4.142,0 7.5,3.582 7.5,8 0,4.418 -3.358,8 -7.5,8 -4.142,0 -7.5,-3.582 -7.5,-8 z"/><path id="path500" d="m 10,-0.499992 169.663,1.41e-4 v 1 L 10,0.500008 Z M 12,6.00001 0,0 12,-5.99999 Z m 165.663,-11.99986 12,6.00000748 -12,5.99999252 z" transform="matrix(-1,0,0,1,846.163,614.5)"/><path id="path502" d="m 751.062,528.497 1.063,171.925 -1,0.006 -1.063,-171.925 z m -6.488,2.04 5.926,-12.037 6.074,11.963 z m 13.039,167.851 -5.926,12.037 -6.074,-11.962 z"/><g id="g506" clip-path="url(#clip1)"><rect id="rect504" width="327" height="255" x="896" y="487" fill="#d9d9d9"/></g><g id="g510" clip-path="url(#clip2)"><path id="path508" fill="none" stroke="#000" stroke-linejoin="round" stroke-miterlimit="10" stroke-width="1.5" d="m 896,742 h 327 M 896,657 h 327 M 896,614 h 327 M 896,572 h 327 M 896,529 h 327 M 896,487 h 327"/></g><g id="g514" clip-path="url(#clip3)"><path id="path512" fill="none" stroke="#000" stroke-linejoin="round" stroke-miterlimit="10" stroke-width="1.5" d="m 896,487 v 255 m 41,-255 v 255 m 41,-255 v 255 m 41,-255 v 255 m 41,-255 v 255 m 41,-255 v 255 m 41,-255 v 255 m 40,-255 v 255 m 41,-255 v 255"/></g><g id="g518" clip-path="url(#clip4)"><rect id="rect516" width="327" height="255" x="896" y="487" fill="none" stroke="#000" stroke-linejoin="round" stroke-miterlimit="10" stroke-width="1.5"/></g><g id="g522" clip-path="url(#clip5)"><path id="path520" fill="none" fill-rule="evenodd" stroke="#d9d9d9" stroke-linejoin="round" stroke-miterlimit="10" stroke-width="1.5" d="m 896,699 h 327"/></g><g id="g526" clip-path="url(#clip6)"><path id="path524" fill="none" stroke="#000" stroke-linecap="round" stroke-linejoin="round" stroke-miterlimit="10" stroke-width="4.5" d="m 1223.5,699.757 c -106.28,0.155 -267.068,0.142 -318.847,0.465 -4.153,0.026 7.957,1.423 8.176,1.476 2.725,0.654 5.45,1.519 8.176,2.453 2.725,0.934 5.45,2.074 8.175,3.15 2.725,1.076 5.45,2.307 8.176,3.308 2.725,1 5.45,2.053 8.175,2.697 2.725,0.645 5.451,1.194 8.176,1.167 2.725,-0.027 5.45,-0.324 8.175,-1.329 2.725,-1.005 5.451,-2.464 8.176,-4.698 2.725,-2.235 5.45,-5.09 8.175,-8.709 2.726,-3.62 5.451,-7.982 8.176,-13.006 2.725,-5.024 5.45,-10.845 8.176,-17.138 2.725,-6.294 5.445,-13.353 8.175,-20.62 2.73,-7.267 5.45,-15.178 8.18,-22.982 2.72,-7.804 5.45,-16.042 8.17,-23.841 2.73,-7.799 5.45,-15.752 8.18,-22.952 2.72,-7.2 5.45,-14.231 8.17,-20.25 2.73,-6.018 5.45,-11.534 8.18,-15.863 2.72,-4.329 5.45,-7.848 8.17,-10.112 2.73,-2.264 5.45,-3.473 8.18,-3.473 2.72,0 5.45,1.209 8.17,3.473 2.73,2.264 5.45,5.783 8.18,10.112 2.73,4.329 5.45,9.845 8.18,15.863 2.72,6.019 5.45,13.05 8.17,20.25 2.73,7.2 5.45,15.153 8.18,22.952 2.72,7.799 5.45,16.037 8.17,23.841 2.73,7.804 5.45,15.715 8.18,22.982 2.72,7.267 5.45,14.326 8.17,20.62 2.73,6.293 5.45,12.114 8.18,17.138 2.72,5.024 5.45,9.386 8.17,13.006 2.73,3.619 5.45,6.474 8.18,8.709 2.73,2.234 5.45,3.693 8.18,4.698 2.72,1.005 5.45,1.302 8.17,1.329 2.73,0.027 5.45,-0.522 8.18,-1.167 2.72,-0.644 5.45,-1.697 8.17,-2.697 2.73,-1.001 5.45,-2.232 8.18,-3.308 2.72,-1.076 5.45,-2.216 8.17,-3.15 2.73,-0.934 5.45,-1.799 8.18,-2.453 2.72,-0.655 5.45,-1.152 8.17,-1.476 2.73,-0.323 5.45,-0.31 8.18,-0.465"/></g><g id="g530" clip-path="url(#clip7)"><text id="text528" fill="#595959" font-family="Calibri, Calibri_MSFontService, sans-serif" font-size="16" font-weight="400" transform="translate(1238.27,746)">-0.25</text></g><g id="g534" clip-path="url(#clip8)"><text id="text532" fill="#595959" font-family="Calibri, Calibri_MSFontService, sans-serif" font-size="16" font-weight="400" transform="translate(1238.27,704)">0</text></g><g id="g538" clip-path="url(#clip9)"><text id="text536" fill="#595959" font-family="Calibri, Calibri_MSFontService, sans-serif" font-size="16" font-weight="400" transform="translate(1238.27,661)">0.25</text></g><g id="g542" clip-path="url(#clip10)"><text id="text540" fill="#595959" font-family="Calibri, Calibri_MSFontService, sans-serif" font-size="16" font-weight="400" transform="translate(1238.27,619)">0.5</text></g><g id="g546" clip-path="url(#clip11)"><text id="text544" fill="#595959" font-family="Calibri, Calibri_MSFontService, sans-serif" font-size="16" font-weight="400" transform="translate(1238.27,576)">0.75</text></g><g id="g550" clip-path="url(#clip12)"><text id="text548" fill="#595959" font-family="Calibri, Calibri_MSFontService, sans-serif" font-size="16" font-weight="400" transform="translate(1238.27,534)">1</text></g><g id="g554" clip-path="url(#clip13)"><text id="text552" fill="#595959" font-family="Calibri, Calibri_MSFontService, sans-serif" font-size="16" font-weight="400" transform="translate(1238.27,491)">1.25</text></g><g id="g558" clip-path="url(#clip14)"><text id="text556" fill="#595959" font-family="Calibri, Calibri_MSFontService, sans-serif" font-size="16" font-weight="400" transform="translate(879.36,767)">-2.00</text></g><g id="g562" clip-path="url(#clip15)"><text id="text560" fill="#595959" font-family="Calibri, Calibri_MSFontService, sans-serif" font-size="16" font-weight="400" transform="translate(920.288,767)">-1.50</text></g><g id="g566" clip-path="url(#clip16)"><text id="text564" fill="#595959" font-family="Calibri, Calibri_MSFontService, sans-serif" font-size="16" font-weight="400" transform="translate(961.217,767)">-1.00</text></g><g id="g570" clip-path="url(#clip17)"><text id="text568" fill="#595959" font-family="Calibri, Calibri_MSFontService, sans-serif" font-size="16" font-weight="400" transform="translate(1002.15,767)">-0.50</text></g><g id="g574" clip-path="url(#clip18)"><text id="text572" fill="#595959" font-family="Calibri, Calibri_MSFontService, sans-serif" font-size="16" font-weight="400" transform="translate(1045.52,767)">0.00</text></g><g id="g578" clip-path="url(#clip19)"><text id="text576" fill="#595959" font-family="Calibri, Calibri_MSFontService, sans-serif" font-size="16" font-weight="400" transform="translate(1086.45,767)">0.50</text></g><g id="g582" clip-path="url(#clip20)"><text id="text580" fill="#595959" font-family="Calibri, Calibri_MSFontService, sans-serif" font-size="16" font-weight="400" transform="translate(1127.38,767)">1.00</text></g><g id="g586" clip-path="url(#clip21)"><text id="text584" fill="#595959" font-family="Calibri, Calibri_MSFontService, sans-serif" font-size="16" font-weight="400" transform="translate(1168.31,767)">1.50</text></g><g id="g590" clip-path="url(#clip22)"><text id="text588" fill="#595959" font-family="Calibri, Calibri_MSFontService, sans-serif" font-size="16" font-weight="400" transform="translate(1209.24,767)">2.00</text></g></g></g></svg>