<svg xmlns="http://www.w3.org/2000/svg" xmlns:svg="http://www.w3.org/2000/svg" id="svg2680" width="693.073" height="432.03" version="1.1" viewBox="0 0 183.376 114.308"><defs id="defs2677"><clipPath id="clip0"><rect id="rect2684" width="694" height="433" x="260" y="534"/></clipPath><linearGradient id="fill1" x1="677" x2="882" y1="804" y2="804" gradientUnits="userSpaceOnUse" spreadMethod="reflect"><stop id="stop2687" offset="0" stop-color="#F2F2F2"/><stop id="stop2689" offset=".004" stop-color="#F1F1F1"/><stop id="stop2691" offset=".009" stop-color="#F1F1F1"/><stop id="stop2693" offset=".013" stop-color="#F1F1F1"/><stop id="stop2695" offset=".018" stop-color="#F1F1F1"/><stop id="stop2697" offset=".022" stop-color="#F1F1F1"/><stop id="stop2699" offset=".026" stop-color="#F1F1F1"/><stop id="stop2701" offset=".031" stop-color="#F1F1F1"/><stop id="stop2703" offset=".035" stop-color="#F1F1F1"/><stop id="stop2705" offset=".039" stop-color="#F1F1F1"/><stop id="stop2707" offset=".044" stop-color="#F1F1F1"/><stop id="stop2709" offset=".048" stop-color="#F1F1F1"/><stop id="stop2711" offset=".053" stop-color="#F1F1F1"/><stop id="stop2713" offset=".057" stop-color="#F0F0F0"/><stop id="stop2715" offset=".061" stop-color="#F0F0F0"/><stop id="stop2717" offset=".066" stop-color="#F0F0F0"/><stop id="stop2719" offset=".07" stop-color="#F0F0F0"/><stop id="stop2721" offset=".075" stop-color="#F0F0F0"/><stop id="stop2723" offset=".079" stop-color="#F0F0F0"/><stop id="stop2725" offset=".083" stop-color="#EFEFEF"/><stop id="stop2727" offset=".088" stop-color="#EFEFEF"/><stop id="stop2729" offset=".092" stop-color="#EFEFEF"/><stop id="stop2731" offset=".096" stop-color="#EFEFEF"/><stop id="stop2733" offset=".101" stop-color="#EEE"/><stop id="stop2735" offset=".105" stop-color="#EEE"/><stop id="stop2737" offset=".11" stop-color="#EEE"/><stop id="stop2739" offset=".114" stop-color="#EEE"/><stop id="stop2741" offset=".118" stop-color="#EDEDED"/><stop id="stop2743" offset=".123" stop-color="#EDEDED"/><stop id="stop2745" offset=".127" stop-color="#EDEDED"/><stop id="stop2747" offset=".132" stop-color="#ECECEC"/><stop id="stop2749" offset=".136" stop-color="#ECECEC"/><stop id="stop2751" offset=".14" stop-color="#ECECEC"/><stop id="stop2753" offset=".145" stop-color="#EBEBEB"/><stop id="stop2755" offset=".149" stop-color="#EBEBEB"/><stop id="stop2757" offset=".154" stop-color="#EBEBEB"/><stop id="stop2759" offset=".158" stop-color="#EAEAEA"/><stop id="stop2761" offset=".162" stop-color="#EAEAEA"/><stop id="stop2763" offset=".167" stop-color="#EAEAEA"/><stop id="stop2765" offset=".171" stop-color="#E9E9E9"/><stop id="stop2767" offset=".175" stop-color="#E9E9E9"/><stop id="stop2769" offset=".18" stop-color="#E8E8E8"/><stop id="stop2771" offset=".184" stop-color="#E8E8E8"/><stop id="stop2773" offset=".189" stop-color="#E7E7E7"/><stop id="stop2775" offset=".193" stop-color="#E7E7E7"/><stop id="stop2777" offset=".197" stop-color="#E7E7E7"/><stop id="stop2779" offset=".202" stop-color="#E6E6E6"/><stop id="stop2781" offset=".206" stop-color="#E6E6E6"/><stop id="stop2783" offset=".211" stop-color="#E5E5E5"/><stop id="stop2785" offset=".215" stop-color="#E5E5E5"/><stop id="stop2787" offset=".219" stop-color="#E4E4E4"/><stop id="stop2789" offset=".224" stop-color="#E4E4E4"/><stop id="stop2791" offset=".228" stop-color="#E3E3E3"/><stop id="stop2793" offset=".232" stop-color="#E3E3E3"/><stop id="stop2795" offset=".237" stop-color="#E2E2E2"/><stop id="stop2797" offset=".241" stop-color="#E2E2E2"/><stop id="stop2799" offset=".246" stop-color="#E1E1E1"/><stop id="stop2801" offset=".25" stop-color="#E0E0E0"/><stop id="stop2803" offset=".254" stop-color="#E0E0E0"/><stop id="stop2805" offset=".259" stop-color="#DFDFDF"/><stop id="stop2807" offset=".263" stop-color="#DFDFDF"/><stop id="stop2809" offset=".268" stop-color="#DEDEDE"/><stop id="stop2811" offset=".272" stop-color="#DEDEDE"/><stop id="stop2813" offset=".276" stop-color="#DDD"/><stop id="stop2815" offset=".281" stop-color="#DCDCDC"/><stop id="stop2817" offset=".285" stop-color="#DCDCDC"/><stop id="stop2819" offset=".289" stop-color="#DBDBDB"/><stop id="stop2821" offset=".294" stop-color="#DADADA"/><stop id="stop2823" offset=".298" stop-color="#DADADA"/><stop id="stop2825" offset=".303" stop-color="#D9D9D9"/><stop id="stop2827" offset=".307" stop-color="#D8D8D8"/><stop id="stop2829" offset=".311" stop-color="#D8D8D8"/><stop id="stop2831" offset=".316" stop-color="#D7D7D7"/><stop id="stop2833" offset=".32" stop-color="#D6D6D6"/><stop id="stop2835" offset=".325" stop-color="#D6D6D6"/><stop id="stop2837" offset=".329" stop-color="#D5D5D5"/><stop id="stop2839" offset=".333" stop-color="#D4D4D4"/><stop id="stop2841" offset=".338" stop-color="#D4D4D4"/><stop id="stop2843" offset=".342" stop-color="#D3D3D3"/><stop id="stop2845" offset=".346" stop-color="#D2D2D2"/><stop id="stop2847" offset=".351" stop-color="#D1D1D1"/><stop id="stop2849" offset=".355" stop-color="#D1D1D1"/><stop id="stop2851" offset=".36" stop-color="#D0D0D0"/><stop id="stop2853" offset=".364" stop-color="#CFCFCF"/><stop id="stop2855" offset=".368" stop-color="#CECECE"/><stop id="stop2857" offset=".373" stop-color="#CDCDCD"/><stop id="stop2859" offset=".377" stop-color="#CDCDCD"/><stop id="stop2861" offset=".382" stop-color="#CCC"/><stop id="stop2863" offset=".386" stop-color="#CBCBCB"/><stop id="stop2865" offset=".39" stop-color="#CACACA"/><stop id="stop2867" offset=".395" stop-color="#C9C9C9"/><stop id="stop2869" offset=".399" stop-color="#C9C9C9"/><stop id="stop2871" offset=".404" stop-color="#C8C8C8"/><stop id="stop2873" offset=".408" stop-color="#C7C7C7"/><stop id="stop2875" offset=".412" stop-color="#C6C6C6"/><stop id="stop2877" offset=".417" stop-color="#C5C5C5"/><stop id="stop2879" offset=".421" stop-color="#C4C4C4"/><stop id="stop2881" offset=".425" stop-color="#C3C3C3"/><stop id="stop2883" offset=".43" stop-color="#C2C2C2"/><stop id="stop2885" offset=".434" stop-color="#C2C2C2"/><stop id="stop2887" offset=".439" stop-color="#C1C1C1"/><stop id="stop2889" offset=".443" stop-color="silver"/><stop id="stop2891" offset=".447" stop-color="#BFBFBF"/><stop id="stop2893" offset=".452" stop-color="#BEBEBE"/><stop id="stop2895" offset=".456" stop-color="#BDBDBD"/><stop id="stop2897" offset=".461" stop-color="#BCBCBC"/><stop id="stop2899" offset=".465" stop-color="#BBB"/><stop id="stop2901" offset=".469" stop-color="#BABABA"/><stop id="stop2903" offset=".474" stop-color="#B9B9B9"/><stop id="stop2905" offset=".478" stop-color="#B8B8B8"/><stop id="stop2907" offset=".482" stop-color="#B7B7B7"/><stop id="stop2909" offset=".487" stop-color="#B6B6B6"/><stop id="stop2911" offset=".491" stop-color="#B5B5B5"/><stop id="stop2913" offset=".496" stop-color="#B4B4B4"/><stop id="stop2915" offset=".5" stop-color="#B3B3B3"/><stop id="stop2917" offset=".504" stop-color="#B2B2B2"/><stop id="stop2919" offset=".509" stop-color="#B1B1B1"/><stop id="stop2921" offset=".513" stop-color="#B0B0B0"/><stop id="stop2923" offset=".518" stop-color="#AFAFAF"/><stop id="stop2925" offset=".522" stop-color="#AEAEAE"/><stop id="stop2927" offset=".526" stop-color="#ADADAD"/><stop id="stop2929" offset=".531" stop-color="#ACACAC"/><stop id="stop2931" offset=".535" stop-color="#ABABAB"/><stop id="stop2933" offset=".539" stop-color="#AAA"/><stop id="stop2935" offset=".544" stop-color="#A8A8A8"/><stop id="stop2937" offset=".548" stop-color="#A7A7A7"/><stop id="stop2939" offset=".553" stop-color="#A6A6A6"/><stop id="stop2941" offset=".557" stop-color="#A5A5A5"/><stop id="stop2943" offset=".561" stop-color="#A4A4A4"/><stop id="stop2945" offset=".566" stop-color="#A3A3A3"/><stop id="stop2947" offset=".57" stop-color="#A2A2A2"/><stop id="stop2949" offset=".575" stop-color="#A0A0A0"/><stop id="stop2951" offset=".579" stop-color="#9F9F9F"/><stop id="stop2953" offset=".583" stop-color="#9E9E9E"/><stop id="stop2955" offset=".588" stop-color="#9D9D9D"/><stop id="stop2957" offset=".592" stop-color="#9C9C9C"/><stop id="stop2959" offset=".596" stop-color="#9B9B9B"/><stop id="stop2961" offset=".601" stop-color="#999"/><stop id="stop2963" offset=".605" stop-color="#989898"/><stop id="stop2965" offset=".61" stop-color="#979797"/><stop id="stop2967" offset=".614" stop-color="#969696"/><stop id="stop2969" offset=".618" stop-color="#949494"/><stop id="stop2971" offset=".623" stop-color="#939393"/><stop id="stop2973" offset=".627" stop-color="#929292"/><stop id="stop2975" offset=".632" stop-color="#919191"/><stop id="stop2977" offset=".636" stop-color="#8F8F8F"/><stop id="stop2979" offset=".64" stop-color="#8E8E8E"/><stop id="stop2981" offset=".645" stop-color="#8D8D8D"/><stop id="stop2983" offset=".649" stop-color="#8C8C8C"/><stop id="stop2985" offset=".654" stop-color="#8A8A8A"/><stop id="stop2987" offset=".658" stop-color="#898989"/><stop id="stop2989" offset=".662" stop-color="#888"/><stop id="stop2991" offset=".667" stop-color="#868686"/><stop id="stop2993" offset=".671" stop-color="#858585"/><stop id="stop2995" offset=".675" stop-color="#848484"/><stop id="stop2997" offset=".68" stop-color="#828282"/><stop id="stop2999" offset=".684" stop-color="#818181"/><stop id="stop3001" offset=".689" stop-color="gray"/><stop id="stop3003" offset=".693" stop-color="#7E7E7E"/><stop id="stop3005" offset=".697" stop-color="#7D7D7D"/><stop id="stop3007" offset=".702" stop-color="#7C7C7C"/><stop id="stop3009" offset=".706" stop-color="#7A7A7A"/><stop id="stop3011" offset=".711" stop-color="#797979"/><stop id="stop3013" offset=".715" stop-color="#777"/><stop id="stop3015" offset=".719" stop-color="#767676"/><stop id="stop3017" offset=".724" stop-color="#757575"/><stop id="stop3019" offset=".728" stop-color="#737373"/><stop id="stop3021" offset=".732" stop-color="#727272"/><stop id="stop3023" offset=".737" stop-color="#707070"/><stop id="stop3025" offset=".741" stop-color="#6F6F6F"/><stop id="stop3027" offset=".746" stop-color="#6D6D6D"/><stop id="stop3029" offset=".75" stop-color="#6C6C6C"/><stop id="stop3031" offset=".754" stop-color="#6B6B6B"/><stop id="stop3033" offset=".759" stop-color="#696969"/><stop id="stop3035" offset=".763" stop-color="#686868"/><stop id="stop3037" offset=".768" stop-color="#666"/><stop id="stop3039" offset=".772" stop-color="#656565"/><stop id="stop3041" offset=".776" stop-color="#636363"/><stop id="stop3043" offset=".781" stop-color="#626262"/><stop id="stop3045" offset=".785" stop-color="#606060"/><stop id="stop3047" offset=".789" stop-color="#5E5E5E"/><stop id="stop3049" offset=".794" stop-color="#5D5D5D"/><stop id="stop3051" offset=".798" stop-color="#5B5B5B"/><stop id="stop3053" offset=".803" stop-color="#5A5A5A"/><stop id="stop3055" offset=".807" stop-color="#585858"/><stop id="stop3057" offset=".811" stop-color="#575757"/><stop id="stop3059" offset=".816" stop-color="#555"/><stop id="stop3061" offset=".82" stop-color="#545454"/><stop id="stop3063" offset=".825" stop-color="#525252"/><stop id="stop3065" offset=".829" stop-color="#505050"/><stop id="stop3067" offset=".833" stop-color="#4F4F4F"/><stop id="stop3069" offset=".838" stop-color="#4D4D4D"/><stop id="stop3071" offset=".842" stop-color="#4C4C4C"/><stop id="stop3073" offset=".846" stop-color="#4A4A4A"/><stop id="stop3075" offset=".851" stop-color="#484848"/><stop id="stop3077" offset=".855" stop-color="#474747"/><stop id="stop3079" offset=".86" stop-color="#454545"/><stop id="stop3081" offset=".864" stop-color="#434343"/><stop id="stop3083" offset=".868" stop-color="#424242"/><stop id="stop3085" offset=".873" stop-color="#404040"/><stop id="stop3087" offset=".877" stop-color="#3E3E3E"/><stop id="stop3089" offset=".882" stop-color="#3D3D3D"/><stop id="stop3091" offset=".886" stop-color="#3B3B3B"/><stop id="stop3093" offset=".89" stop-color="#393939"/><stop id="stop3095" offset=".895" stop-color="#383838"/><stop id="stop3097" offset=".899" stop-color="#363636"/><stop id="stop3099" offset=".904" stop-color="#343434"/><stop id="stop3101" offset=".908" stop-color="#323232"/><stop id="stop3103" offset=".912" stop-color="#313131"/><stop id="stop3105" offset=".917" stop-color="#2F2F2F"/><stop id="stop3107" offset=".921" stop-color="#2D2D2D"/><stop id="stop3109" offset=".925" stop-color="#2B2B2B"/><stop id="stop3111" offset=".93" stop-color="#2A2A2A"/><stop id="stop3113" offset=".934" stop-color="#282828"/><stop id="stop3115" offset=".939" stop-color="#262626"/><stop id="stop3117" offset=".943" stop-color="#242424"/><stop id="stop3119" offset=".947" stop-color="#232323"/><stop id="stop3121" offset=".952" stop-color="#212121"/><stop id="stop3123" offset=".956" stop-color="#1F1F1F"/><stop id="stop3125" offset=".961" stop-color="#1D1D1D"/><stop id="stop3127" offset=".965" stop-color="#1B1B1B"/><stop id="stop3129" offset=".969" stop-color="#1A1A1A"/><stop id="stop3131" offset=".974" stop-color="#181818"/><stop id="stop3133" offset=".978" stop-color="#161616"/><stop id="stop3135" offset=".982" stop-color="#141414"/><stop id="stop3137" offset=".987" stop-color="#121212"/><stop id="stop3139" offset=".991" stop-color="#101010"/><stop id="stop3141" offset=".996" stop-color="#0E0E0E"/><stop id="stop3143" offset="1" stop-color="#0D0D0D"/></linearGradient></defs><g id="layer1" transform="translate(214.84244,38.782831)"><g id="g3242" clip-path="url(#clip0)" transform="matrix(0.26458333,0,0,0.26458333,-283.87933,-180.16936)"><rect id="rect3148" width="52" height="51" x="589" y="626" fill="#bfbfbf" stroke="#000" stroke-miterlimit="8" stroke-width="2"/><rect id="rect3150" width="52" height="51" x="693" y="626" fill="#bfbfbf" stroke="#000" stroke-miterlimit="8" stroke-width="2"/><rect id="rect3152" width="52" height="51" x="641" y="626" fill="#bfbfbf" stroke="#000" stroke-miterlimit="8" stroke-width="2"/><rect id="rect3154" width="52" height="52" x="589" y="674" fill="#bfbfbf" stroke="#000" stroke-miterlimit="8" stroke-width="2"/><rect id="rect3156" width="52" height="52" x="693" y="674" fill="#7f7f7f" stroke="#000" stroke-miterlimit="8" stroke-width="2"/><rect id="rect3158" width="52" height="52" x="641.5" y="674.5" fill="#bfbfbf" stroke="#000" stroke-miterlimit="8" stroke-width="4.5"/><rect id="rect3160" width="52" height="52" x="589" y="726" fill="#7f7f7f" stroke="#000" stroke-miterlimit="8" stroke-width="2"/><rect id="rect3162" width="52" height="52" x="693" y="726" fill="#7f7f7f" stroke="#000" stroke-miterlimit="8" stroke-width="2"/><rect id="rect3164" width="52" height="52" x="641" y="726" fill="#7f7f7f" stroke="#000" stroke-miterlimit="8" stroke-width="2"/><path id="path3166" fill-rule="evenodd" d="m 659,700.5 c 0,-4.142 3.358,-7.5 7.5,-7.5 4.142,0 7.5,3.358 7.5,7.5 0,4.142 -3.358,7.5 -7.5,7.5 -4.142,0 -7.5,-3.358 -7.5,-7.5 z"/><path id="path3168" fill-rule="evenodd" d="m 607,650 c 0,-4.418 3.582,-8 8,-8 4.418,0 8,3.582 8,8 0,4.418 -3.582,8 -8,8 -4.418,0 -8,-3.582 -8,-8 z"/><path id="path3170" fill-rule="evenodd" d="m 607,702 c 0,-4.418 3.358,-8 7.5,-8 4.142,0 7.5,3.582 7.5,8 0,4.418 -3.358,8 -7.5,8 -4.142,0 -7.5,-3.582 -7.5,-8 z"/><path id="path3172" fill-rule="evenodd" d="m 606,752 c 0,-4.418 3.582,-8 8,-8 4.418,0 8,3.582 8,8 0,4.418 -3.582,8 -8,8 -4.418,0 -8,-3.582 -8,-8 z"/><path id="path3174" fill-rule="evenodd" d="m 659,650 c 0,-4.418 3.358,-8 7.5,-8 4.142,0 7.5,3.582 7.5,8 0,4.418 -3.358,8 -7.5,8 -4.142,0 -7.5,-3.582 -7.5,-8 z"/><path id="path3176" fill-rule="evenodd" d="m 711,650 c 0,-4.418 3.358,-8 7.5,-8 4.142,0 7.5,3.582 7.5,8 0,4.418 -3.358,8 -7.5,8 -4.142,0 -7.5,-3.582 -7.5,-8 z"/><path id="path3178" fill-rule="evenodd" d="m 711,702 c 0,-4.418 3.358,-8 7.5,-8 4.142,0 7.5,3.582 7.5,8 0,4.418 -3.358,8 -7.5,8 -4.142,0 -7.5,-3.582 -7.5,-8 z"/><path id="path3180" fill-rule="evenodd" d="m 711,752 c 0,-4.418 3.358,-8 7.5,-8 4.142,0 7.5,3.582 7.5,8 0,4.418 -3.358,8 -7.5,8 -4.142,0 -7.5,-3.582 -7.5,-8 z"/><path id="path3182" fill-rule="evenodd" d="m 658,753 c 0,-4.418 3.582,-8 8,-8 4.418,0 8,3.582 8,8 0,4.418 -3.582,8 -8,8 -4.418,0 -8,-3.582 -8,-8 z"/><rect id="rect3184" width="52" height="52" x="797" y="626" fill="#bfbfbf" stroke="#000" stroke-miterlimit="8" stroke-width="2"/><rect id="rect3186" width="52" height="52" x="901" y="626" fill="#bfbfbf" stroke="#000" stroke-miterlimit="8" stroke-width="2"/><rect id="rect3188" width="52" height="52" x="849" y="626" fill="#bfbfbf" stroke="#000" stroke-miterlimit="8" stroke-width="2"/><rect id="rect3190" width="52" height="51" x="797" y="675" fill="#bfbfbf" stroke="#000" stroke-miterlimit="8" stroke-width="2"/><rect id="rect3192" width="52" height="51" x="901" y="675" fill="#7f7f7f" stroke="#000" stroke-miterlimit="8" stroke-width="2"/><rect id="rect3194" width="52" height="51" x="849.5" y="675.5" fill="#7f7f7f" stroke="#000" stroke-miterlimit="8" stroke-width="4.5"/><rect id="rect3196" width="52" height="52" x="797" y="726" fill="#7f7f7f" stroke="#000" stroke-miterlimit="8" stroke-width="2"/><rect id="rect3198" width="52" height="52" x="901" y="726" fill="#7f7f7f" stroke="#000" stroke-miterlimit="8" stroke-width="2"/><rect id="rect3200" width="52" height="52" x="849" y="726" fill="#7f7f7f" stroke="#000" stroke-miterlimit="8" stroke-width="2"/><path id="path3202" fill-rule="evenodd" d="m 867,701 c 0,-4.418 3.358,-8 7.5,-8 4.142,0 7.5,3.582 7.5,8 0,4.418 -3.358,8 -7.5,8 -4.142,0 -7.5,-3.582 -7.5,-8 z"/><path id="path3204" fill-rule="evenodd" d="m 815,650.5 c 0,-4.142 3.582,-7.5 8,-7.5 4.418,0 8,3.358 8,7.5 0,4.142 -3.582,7.5 -8,7.5 -4.418,0 -8,-3.358 -8,-7.5 z"/><path id="path3206" fill-rule="evenodd" d="m 815,702 c 0,-4.418 3.358,-8 7.5,-8 4.142,0 7.5,3.582 7.5,8 0,4.418 -3.358,8 -7.5,8 -4.142,0 -7.5,-3.582 -7.5,-8 z"/><path id="path3208" fill-rule="evenodd" d="m 814,752.5 c 0,-4.142 3.582,-7.5 8,-7.5 4.418,0 8,3.358 8,7.5 0,4.142 -3.582,7.5 -8,7.5 -4.418,0 -8,-3.358 -8,-7.5 z"/><path id="path3210" fill-rule="evenodd" d="m 867,650.5 c 0,-4.142 3.358,-7.5 7.5,-7.5 4.142,0 7.5,3.358 7.5,7.5 0,4.142 -3.358,7.5 -7.5,7.5 -4.142,0 -7.5,-3.358 -7.5,-7.5 z"/><path id="path3212" fill-rule="evenodd" d="m 919,650.5 c 0,-4.142 3.358,-7.5 7.5,-7.5 4.142,0 7.5,3.358 7.5,7.5 0,4.142 -3.358,7.5 -7.5,7.5 -4.142,0 -7.5,-3.358 -7.5,-7.5 z"/><path id="path3214" fill-rule="evenodd" d="m 919,702 c 0,-4.418 3.358,-8 7.5,-8 4.142,0 7.5,3.582 7.5,8 0,4.418 -3.358,8 -7.5,8 -4.142,0 -7.5,-3.582 -7.5,-8 z"/><path id="path3216" fill-rule="evenodd" d="m 919,752.5 c 0,-4.142 3.358,-7.5 7.5,-7.5 4.142,0 7.5,3.358 7.5,7.5 0,4.142 -3.358,7.5 -7.5,7.5 -4.142,0 -7.5,-3.358 -7.5,-7.5 z"/><path id="path3218" fill-rule="evenodd" d="m 866,753 c 0,-4.418 3.582,-8 8,-8 4.418,0 8,3.582 8,8 0,4.418 -3.582,8 -8,8 -4.418,0 -8,-3.582 -8,-8 z"/><rect id="rect3220" width="205" height="16" x="677" y="796" fill="url(#fill1)" style="fill:url(#fill1)"/><text id="text3224" font-family="Calibri, Calibri_MSFontService, sans-serif" font-size="21" font-weight="400" transform="translate(896.908,810)">1.0f<tspan id="tspan3222" x="-264.974" y="0" font-size="21">0.0f</tspan></text><path id="path3226" fill="#7f7f7f" fill-rule="evenodd" stroke="#000" stroke-miterlimit="8" stroke-width="2" d="M 262.595,759.572 536.72,736.065 383.417,964.528 Z"/><path id="path3228" fill="#bfbfbf" fill-rule="evenodd" stroke="#000" stroke-miterlimit="8" stroke-width="2" d="m 347.133,536.214 189.885,199.1 -274.134,23.401 z"/><rect id="rect3230" width="23" height="24" x="295" y="744" fill="none" stroke="#000" stroke-miterlimit="8" stroke-width="2"/><path id="path3232" fill="none" fill-rule="evenodd" stroke="#000" stroke-miterlimit="8" d="M 0,0 282.111,118.766" transform="matrix(1,0,0,-1,307.5,745.266)"/><path id="path3234" fill="none" fill-rule="evenodd" stroke="#000" stroke-miterlimit="8" d="m 305.5,768.5 286.222,10.535"/><path id="path3236" fill="#d9d9d9" fill-rule="evenodd" d="m 59,32 -8.8732,-8 h 4 C 50.9918,9.87142 40.0399,1.33345e-5 27.5,1.33345e-5 L 35.5,0 c 12.54,0 23.4918,9.8714 26.6268,24 h 3.9999 z" transform="matrix(-1,0,0,1,934,656)"/><path id="path3238" fill="#aeaeae" fill-rule="evenodd" d="M 31.5,0.340349 C 18.0023,2.64948 7.99999,16.1247 7.99999,32 H 0 C 0,14.3269 12.3122,0 27.5,0 c 1.3387,0 2.6756,0.113742 4,0.34032 z" transform="matrix(-1,0,0,1,934,656)"/><path id="path3240" fill="none" fill-rule="evenodd" stroke="#000" stroke-miterlimit="8" stroke-width="2" d="M 31.5,0.340349 C 18.0023,2.64948 7.99999,16.1247 7.99999,32 H 0 C 0,14.3269 12.3122,0 27.5,0 h 8 c 12.54,0 23.4918,9.8714 26.6268,24 h 3.9999 L 59,32 50.1268,24 h 4 C 50.9918,9.87142 40.0399,1.33345e-5 27.5,1.33345e-5" transform="matrix(-1,0,0,1,934,656)"/></g></g></svg>